<svg width="180" height="35" viewBox="0 0 180 35" fill="none" xmlns="http://www.w3.org/2000/svg">
    <g clip-path="url(#clip0_6_18)">
        <g filter="url(#filter0_d_6_18)">
            <path d="M0.198853 27V24.6989L11.3466 10.3807V10.1761H0.556807V7.36364H15.233V9.76705L4.39204 23.983V24.1875H15.5909V27H0.198853ZM27.9084 27.4091C26.0163 27.4091 24.3842 26.9915 23.0121 26.1562C21.6484 25.3125 20.5959 24.1364 19.8544 22.6278C19.1214 21.1108 18.755 19.3466 18.755 17.3352C18.755 15.3239 19.1214 13.5511 19.8544 12.017C20.5959 10.4744 21.6271 9.27273 22.9482 8.41193C24.2777 7.54261 25.8288 7.10795 27.6016 7.10795C28.6243 7.10795 29.6342 7.27841 30.6314 7.61932C31.6286 7.96023 32.5362 8.5142 33.3544 9.28125C34.1726 10.0398 34.8246 11.0455 35.3104 12.2983C35.7962 13.5511 36.0391 15.0937 36.0391 16.9261V18.2045H20.9027V15.5966H32.9709C32.9709 14.4886 32.7493 13.5 32.3061 12.6307C31.8714 11.7614 31.2493 11.0753 30.4396 10.5724C29.6385 10.0696 28.6925 9.81818 27.6016 9.81818C26.3999 9.81818 25.3601 10.1165 24.4822 10.7131C23.6129 11.3011 22.9439 12.0682 22.4751 13.0142C22.0064 13.9602 21.772 14.9744 21.772 16.0568V17.7955C21.772 19.2784 22.0277 20.5355 22.5391 21.5668C23.0589 22.5895 23.7791 23.3693 24.6996 23.9062C25.62 24.4347 26.6896 24.6989 27.9084 24.6989C28.701 24.6989 29.4169 24.5881 30.0561 24.3665C30.7038 24.1364 31.2621 23.7955 31.7308 23.3438C32.1996 22.8835 32.5618 22.3125 32.8175 21.6307L35.7322 22.4489C35.4254 23.4375 34.9098 24.3068 34.1854 25.0568C33.4609 25.7983 32.5661 26.3778 31.5007 26.7955C30.4354 27.2045 29.2379 27.4091 27.9084 27.4091ZM43.6456 15.1875V27H40.6286V7.36364H43.5433V10.4318H43.799C44.2592 9.43466 44.9581 8.63352 45.8956 8.02841C46.8331 7.41477 48.0433 7.10795 49.5263 7.10795C50.8558 7.10795 52.0192 7.38068 53.0163 7.92614C54.0135 8.46307 54.7891 9.28125 55.343 10.3807C55.897 11.4716 56.174 12.8523 56.174 14.5227V27H53.157V14.7273C53.157 13.1847 52.7564 11.983 51.9553 11.1222C51.1541 10.2528 50.0547 9.81818 48.657 9.81818C47.6939 9.81818 46.8331 10.027 46.0746 10.4446C45.3246 10.8622 44.7322 11.4716 44.2976 12.2727C43.8629 13.0739 43.6456 14.0455 43.6456 15.1875ZM62.0962 27V0.818184H65.1133V10.483H65.369C65.5906 10.142 65.8974 9.70739 66.2894 9.17898C66.69 8.64205 67.261 8.16477 68.0025 7.74716C68.7525 7.32102 69.7667 7.10795 71.0451 7.10795C72.6985 7.10795 74.1559 7.52131 75.4173 8.34801C76.6786 9.17472 77.663 10.3466 78.3704 11.8636C79.0778 13.3807 79.4315 15.1705 79.4315 17.233C79.4315 19.3125 79.0778 21.1151 78.3704 22.6406C77.663 24.1577 76.6829 25.3338 75.43 26.169C74.1772 26.9957 72.7326 27.4091 71.0962 27.4091C69.8349 27.4091 68.8249 27.2003 68.0664 26.7827C67.3079 26.3565 66.7241 25.875 66.315 25.3381C65.9059 24.7926 65.5906 24.3409 65.369 23.983H65.011V27H62.0962ZM65.0621 17.1818C65.0621 18.6648 65.2795 19.973 65.7141 21.1065C66.1488 22.2315 66.7837 23.1136 67.619 23.7528C68.4542 24.3835 69.4769 24.6989 70.6871 24.6989C71.9485 24.6989 73.0011 24.3665 73.8448 23.7017C74.6971 23.0284 75.3363 22.125 75.7624 20.9915C76.1971 19.8494 76.4144 18.5795 76.4144 17.1818C76.4144 15.8011 76.2013 14.5568 75.7752 13.4489C75.3576 12.3324 74.7227 11.4503 73.8704 10.8026C73.0266 10.1463 71.9656 9.81818 70.6871 9.81818C69.4599 9.81818 68.4286 10.1293 67.5934 10.7514C66.7582 11.3651 66.1275 12.2259 65.7013 13.3338C65.2752 14.4332 65.0621 15.7159 65.0621 17.1818ZM96.4215 18.9716V7.36364H99.4386V27H96.4215V23.6761H96.217C95.7567 24.6733 95.0408 25.5213 94.0692 26.2202C93.0977 26.9105 91.8704 27.2557 90.3874 27.2557C89.1602 27.2557 88.0692 26.9872 87.1147 26.4503C86.1602 25.9048 85.4102 25.0866 84.8647 23.9957C84.3192 22.8963 84.0465 21.5114 84.0465 19.8409V7.36364H87.0636V19.6364C87.0636 21.0682 87.4641 22.2102 88.2653 23.0625C89.0749 23.9148 90.1062 24.3409 91.359 24.3409C92.109 24.3409 92.8718 24.1491 93.6474 23.7656C94.4315 23.3821 95.0877 22.794 95.6161 22.0014C96.1531 21.2088 96.4215 20.1989 96.4215 18.9716ZM112.379 27.4091C110.743 27.4091 109.298 26.9957 108.045 26.169C106.793 25.3338 105.813 24.1577 105.105 22.6406C104.398 21.1151 104.044 19.3125 104.044 17.233C104.044 15.1705 104.398 13.3807 105.105 11.8636C105.813 10.3466 106.797 9.17472 108.058 8.34801C109.32 7.52131 110.777 7.10795 112.43 7.10795C113.709 7.10795 114.719 7.32102 115.46 7.74716C116.21 8.16477 116.781 8.64205 117.173 9.17898C117.574 9.70739 117.885 10.142 118.107 10.483H118.362V0.818184H121.379V27H118.464V23.983H118.107C117.885 24.3409 117.57 24.7926 117.161 25.3381C116.751 25.875 116.168 26.3565 115.409 26.7827C114.651 27.2003 113.641 27.4091 112.379 27.4091ZM112.788 24.6989C113.999 24.6989 115.021 24.3835 115.857 23.7528C116.692 23.1136 117.327 22.2315 117.761 21.1065C118.196 19.973 118.413 18.6648 118.413 17.1818C118.413 15.7159 118.2 14.4332 117.774 13.3338C117.348 12.2259 116.717 11.3651 115.882 10.7514C115.047 10.1293 114.016 9.81818 112.788 9.81818C111.51 9.81818 110.445 10.1463 109.592 10.8026C108.749 11.4503 108.114 12.3324 107.688 13.4489C107.27 14.5568 107.061 15.8011 107.061 17.1818C107.061 18.5795 107.274 19.8494 107.7 20.9915C108.135 22.125 108.774 23.0284 109.618 23.7017C110.47 24.3665 111.527 24.6989 112.788 24.6989ZM135.25 34.7727C133.793 34.7727 132.54 34.5852 131.491 34.2102C130.443 33.8438 129.57 33.358 128.871 32.7528C128.18 32.1563 127.631 31.517 127.222 30.8352L129.625 29.1477C129.898 29.5057 130.243 29.9148 130.661 30.375C131.078 30.8438 131.649 31.2486 132.374 31.5895C133.107 31.9389 134.065 32.1136 135.25 32.1136C136.835 32.1136 138.143 31.7301 139.175 30.9631C140.206 30.196 140.722 28.9943 140.722 27.358V23.3693H140.466C140.244 23.7273 139.929 24.1705 139.52 24.6989C139.119 25.2188 138.54 25.6832 137.781 26.0923C137.031 26.4929 136.017 26.6932 134.739 26.6932C133.153 26.6932 131.73 26.3182 130.469 25.5682C129.216 24.8182 128.223 23.7273 127.49 22.2955C126.766 20.8636 126.403 19.125 126.403 17.0795C126.403 15.0682 126.757 13.3168 127.464 11.8253C128.172 10.3253 129.156 9.16619 130.418 8.34801C131.679 7.52131 133.136 7.10795 134.79 7.10795C136.068 7.10795 137.082 7.32102 137.832 7.74716C138.591 8.16477 139.17 8.64205 139.571 9.17898C139.98 9.70739 140.295 10.142 140.517 10.483H140.824V7.36364H143.739V27.5625C143.739 29.25 143.355 30.6222 142.588 31.679C141.83 32.7443 140.807 33.5241 139.52 34.0185C138.241 34.5213 136.818 34.7727 135.25 34.7727ZM135.148 23.983C136.358 23.983 137.381 23.706 138.216 23.152C139.051 22.598 139.686 21.8011 140.121 20.7614C140.555 19.7216 140.773 18.4773 140.773 17.0284C140.773 15.6136 140.56 14.3651 140.134 13.2827C139.707 12.2003 139.077 11.3523 138.241 10.7386C137.406 10.125 136.375 9.81818 135.148 9.81818C133.869 9.81818 132.804 10.142 131.952 10.7898C131.108 11.4375 130.473 12.3068 130.047 13.3977C129.629 14.4886 129.42 15.6989 129.42 17.0284C129.42 18.392 129.634 19.598 130.06 20.6463C130.494 21.6861 131.134 22.5043 131.977 23.1009C132.83 23.6889 133.886 23.983 135.148 23.983ZM157.494 27.4091C155.602 27.4091 153.97 26.9915 152.598 26.1562C151.234 25.3125 150.182 24.1364 149.44 22.6278C148.707 21.1108 148.341 19.3466 148.341 17.3352C148.341 15.3239 148.707 13.5511 149.44 12.017C150.182 10.4744 151.213 9.27273 152.534 8.41193C153.864 7.54261 155.415 7.10795 157.188 7.10795C158.21 7.10795 159.22 7.27841 160.217 7.61932C161.214 7.96023 162.122 8.5142 162.94 9.28125C163.759 10.0398 164.411 11.0455 164.896 12.2983C165.382 13.5511 165.625 15.0937 165.625 16.9261V18.2045H150.489V15.5966H162.557C162.557 14.4886 162.335 13.5 161.892 12.6307C161.457 11.7614 160.835 11.0753 160.026 10.5724C159.224 10.0696 158.278 9.81818 157.188 9.81818C155.986 9.81818 154.946 10.1165 154.068 10.7131C153.199 11.3011 152.53 12.0682 152.061 13.0142C151.592 13.9602 151.358 14.9744 151.358 16.0568V17.7955C151.358 19.2784 151.614 20.5355 152.125 21.5668C152.645 22.5895 153.365 23.3693 154.286 23.9062C155.206 24.4347 156.276 24.6989 157.494 24.6989C158.287 24.6989 159.003 24.5881 159.642 24.3665C160.29 24.1364 160.848 23.7955 161.317 23.3438C161.786 22.8835 162.148 22.3125 162.403 21.6307L165.318 22.4489C165.011 23.4375 164.496 24.3068 163.771 25.0568C163.047 25.7983 162.152 26.3778 161.087 26.7955C160.021 27.2045 158.824 27.4091 157.494 27.4091ZM178.754 7.36364V9.92045H168.578V7.36364H178.754ZM171.544 2.65909H174.561V21.375C174.561 22.2273 174.685 22.8665 174.932 23.2926C175.188 23.7102 175.511 23.9915 175.903 24.1364C176.304 24.2727 176.726 24.3409 177.169 24.3409C177.501 24.3409 177.774 24.3239 177.987 24.2898C178.2 24.2472 178.371 24.2131 178.499 24.1875L179.112 26.8977C178.908 26.9744 178.622 27.0511 178.256 27.1278C177.889 27.2131 177.425 27.2557 176.862 27.2557C176.01 27.2557 175.175 27.0724 174.357 26.706C173.547 26.3395 172.874 25.7812 172.337 25.0312C171.808 24.2812 171.544 23.3352 171.544 22.1932V2.65909Z"
                  fill="black" fill-opacity="0.68"/>
        </g>
        <mask id="mask0_6_18" style="mask-type:luminance" maskUnits="userSpaceOnUse" x="-1" y="0" width="181"
              height="35">
            <path d="M180 0H-1V35H180V0Z" fill="white"/>
            <path d="M0.198853 27V24.6989L11.3466 10.3807V10.1761H0.556807V7.36364H15.233V9.76705L4.39204 23.983V24.1875H15.5909V27H0.198853ZM27.9084 27.4091C26.0163 27.4091 24.3842 26.9915 23.0121 26.1562C21.6484 25.3125 20.5959 24.1364 19.8544 22.6278C19.1214 21.1108 18.755 19.3466 18.755 17.3352C18.755 15.3239 19.1214 13.5511 19.8544 12.017C20.5959 10.4744 21.6271 9.27273 22.9482 8.41193C24.2777 7.54261 25.8288 7.10795 27.6016 7.10795C28.6243 7.10795 29.6342 7.27841 30.6314 7.61932C31.6286 7.96023 32.5362 8.5142 33.3544 9.28125C34.1726 10.0398 34.8246 11.0455 35.3104 12.2983C35.7962 13.5511 36.0391 15.0937 36.0391 16.9261V18.2045H20.9027V15.5966H32.9709C32.9709 14.4886 32.7493 13.5 32.3061 12.6307C31.8714 11.7614 31.2493 11.0753 30.4396 10.5724C29.6385 10.0696 28.6925 9.81818 27.6016 9.81818C26.3999 9.81818 25.3601 10.1165 24.4822 10.7131C23.6129 11.3011 22.9439 12.0682 22.4751 13.0142C22.0064 13.9602 21.772 14.9744 21.772 16.0568V17.7955C21.772 19.2784 22.0277 20.5355 22.5391 21.5668C23.0589 22.5895 23.7791 23.3693 24.6996 23.9062C25.62 24.4347 26.6896 24.6989 27.9084 24.6989C28.701 24.6989 29.4169 24.5881 30.0561 24.3665C30.7038 24.1364 31.2621 23.7955 31.7308 23.3438C32.1996 22.8835 32.5618 22.3125 32.8175 21.6307L35.7322 22.4489C35.4254 23.4375 34.9098 24.3068 34.1854 25.0568C33.4609 25.7983 32.5661 26.3778 31.5007 26.7955C30.4354 27.2045 29.2379 27.4091 27.9084 27.4091ZM43.6456 15.1875V27H40.6286V7.36364H43.5433V10.4318H43.799C44.2592 9.43466 44.9581 8.63352 45.8956 8.02841C46.8331 7.41477 48.0433 7.10795 49.5263 7.10795C50.8558 7.10795 52.0192 7.38068 53.0163 7.92614C54.0135 8.46307 54.7891 9.28125 55.343 10.3807C55.897 11.4716 56.174 12.8523 56.174 14.5227V27H53.157V14.7273C53.157 13.1847 52.7564 11.983 51.9553 11.1222C51.1541 10.2528 50.0547 9.81818 48.657 9.81818C47.6939 9.81818 46.8331 10.027 46.0746 10.4446C45.3246 10.8622 44.7322 11.4716 44.2976 12.2727C43.8629 13.0739 43.6456 14.0455 43.6456 15.1875ZM62.0962 27V0.818184H65.1133V10.483H65.369C65.5906 10.142 65.8974 9.70739 66.2894 9.17898C66.69 8.64205 67.261 8.16477 68.0025 7.74716C68.7525 7.32102 69.7667 7.10795 71.0451 7.10795C72.6985 7.10795 74.1559 7.52131 75.4173 8.34801C76.6786 9.17472 77.663 10.3466 78.3704 11.8636C79.0778 13.3807 79.4315 15.1705 79.4315 17.233C79.4315 19.3125 79.0778 21.1151 78.3704 22.6406C77.663 24.1577 76.6829 25.3338 75.43 26.169C74.1772 26.9957 72.7326 27.4091 71.0962 27.4091C69.8349 27.4091 68.8249 27.2003 68.0664 26.7827C67.3079 26.3565 66.7241 25.875 66.315 25.3381C65.9059 24.7926 65.5906 24.3409 65.369 23.983H65.011V27H62.0962ZM65.0621 17.1818C65.0621 18.6648 65.2795 19.973 65.7141 21.1065C66.1488 22.2315 66.7837 23.1136 67.619 23.7528C68.4542 24.3835 69.4769 24.6989 70.6871 24.6989C71.9485 24.6989 73.0011 24.3665 73.8448 23.7017C74.6971 23.0284 75.3363 22.125 75.7624 20.9915C76.1971 19.8494 76.4144 18.5795 76.4144 17.1818C76.4144 15.8011 76.2013 14.5568 75.7752 13.4489C75.3576 12.3324 74.7227 11.4503 73.8704 10.8026C73.0266 10.1463 71.9656 9.81818 70.6871 9.81818C69.4599 9.81818 68.4286 10.1293 67.5934 10.7514C66.7582 11.3651 66.1275 12.2259 65.7013 13.3338C65.2752 14.4332 65.0621 15.7159 65.0621 17.1818ZM96.4215 18.9716V7.36364H99.4386V27H96.4215V23.6761H96.217C95.7567 24.6733 95.0408 25.5213 94.0692 26.2202C93.0977 26.9105 91.8704 27.2557 90.3874 27.2557C89.1602 27.2557 88.0692 26.9872 87.1147 26.4503C86.1602 25.9048 85.4102 25.0866 84.8647 23.9957C84.3192 22.8963 84.0465 21.5114 84.0465 19.8409V7.36364H87.0636V19.6364C87.0636 21.0682 87.4641 22.2102 88.2653 23.0625C89.0749 23.9148 90.1062 24.3409 91.359 24.3409C92.109 24.3409 92.8718 24.1491 93.6474 23.7656C94.4315 23.3821 95.0877 22.794 95.6161 22.0014C96.1531 21.2088 96.4215 20.1989 96.4215 18.9716ZM112.379 27.4091C110.743 27.4091 109.298 26.9957 108.045 26.169C106.793 25.3338 105.813 24.1577 105.105 22.6406C104.398 21.1151 104.044 19.3125 104.044 17.233C104.044 15.1705 104.398 13.3807 105.105 11.8636C105.813 10.3466 106.797 9.17472 108.058 8.34801C109.32 7.52131 110.777 7.10795 112.43 7.10795C113.709 7.10795 114.719 7.32102 115.46 7.74716C116.21 8.16477 116.781 8.64205 117.173 9.17898C117.574 9.70739 117.885 10.142 118.107 10.483H118.362V0.818184H121.379V27H118.464V23.983H118.107C117.885 24.3409 117.57 24.7926 117.161 25.3381C116.751 25.875 116.168 26.3565 115.409 26.7827C114.651 27.2003 113.641 27.4091 112.379 27.4091ZM112.788 24.6989C113.999 24.6989 115.021 24.3835 115.857 23.7528C116.692 23.1136 117.327 22.2315 117.761 21.1065C118.196 19.973 118.413 18.6648 118.413 17.1818C118.413 15.7159 118.2 14.4332 117.774 13.3338C117.348 12.2259 116.717 11.3651 115.882 10.7514C115.047 10.1293 114.016 9.81818 112.788 9.81818C111.51 9.81818 110.445 10.1463 109.592 10.8026C108.749 11.4503 108.114 12.3324 107.688 13.4489C107.27 14.5568 107.061 15.8011 107.061 17.1818C107.061 18.5795 107.274 19.8494 107.7 20.9915C108.135 22.125 108.774 23.0284 109.618 23.7017C110.47 24.3665 111.527 24.6989 112.788 24.6989ZM135.25 34.7727C133.793 34.7727 132.54 34.5852 131.491 34.2102C130.443 33.8438 129.57 33.358 128.871 32.7528C128.18 32.1563 127.631 31.517 127.222 30.8352L129.625 29.1477C129.898 29.5057 130.243 29.9148 130.661 30.375C131.078 30.8438 131.649 31.2486 132.374 31.5895C133.107 31.9389 134.065 32.1136 135.25 32.1136C136.835 32.1136 138.143 31.7301 139.175 30.9631C140.206 30.196 140.722 28.9943 140.722 27.358V23.3693H140.466C140.244 23.7273 139.929 24.1705 139.52 24.6989C139.119 25.2188 138.54 25.6832 137.781 26.0923C137.031 26.4929 136.017 26.6932 134.739 26.6932C133.153 26.6932 131.73 26.3182 130.469 25.5682C129.216 24.8182 128.223 23.7273 127.49 22.2955C126.766 20.8636 126.403 19.125 126.403 17.0795C126.403 15.0682 126.757 13.3168 127.464 11.8253C128.172 10.3253 129.156 9.16619 130.418 8.34801C131.679 7.52131 133.136 7.10795 134.79 7.10795C136.068 7.10795 137.082 7.32102 137.832 7.74716C138.591 8.16477 139.17 8.64205 139.571 9.17898C139.98 9.70739 140.295 10.142 140.517 10.483H140.824V7.36364H143.739V27.5625C143.739 29.25 143.355 30.6222 142.588 31.679C141.83 32.7443 140.807 33.5241 139.52 34.0185C138.241 34.5213 136.818 34.7727 135.25 34.7727ZM135.148 23.983C136.358 23.983 137.381 23.706 138.216 23.152C139.051 22.598 139.686 21.8011 140.121 20.7614C140.555 19.7216 140.773 18.4773 140.773 17.0284C140.773 15.6136 140.56 14.3651 140.134 13.2827C139.707 12.2003 139.077 11.3523 138.241 10.7386C137.406 10.125 136.375 9.81818 135.148 9.81818C133.869 9.81818 132.804 10.142 131.952 10.7898C131.108 11.4375 130.473 12.3068 130.047 13.3977C129.629 14.4886 129.42 15.6989 129.42 17.0284C129.42 18.392 129.634 19.598 130.06 20.6463C130.494 21.6861 131.134 22.5043 131.977 23.1009C132.83 23.6889 133.886 23.983 135.148 23.983ZM157.494 27.4091C155.602 27.4091 153.97 26.9915 152.598 26.1562C151.234 25.3125 150.182 24.1364 149.44 22.6278C148.707 21.1108 148.341 19.3466 148.341 17.3352C148.341 15.3239 148.707 13.5511 149.44 12.017C150.182 10.4744 151.213 9.27273 152.534 8.41193C153.864 7.54261 155.415 7.10795 157.188 7.10795C158.21 7.10795 159.22 7.27841 160.217 7.61932C161.214 7.96023 162.122 8.5142 162.94 9.28125C163.759 10.0398 164.411 11.0455 164.896 12.2983C165.382 13.5511 165.625 15.0937 165.625 16.9261V18.2045H150.489V15.5966H162.557C162.557 14.4886 162.335 13.5 161.892 12.6307C161.457 11.7614 160.835 11.0753 160.026 10.5724C159.224 10.0696 158.278 9.81818 157.188 9.81818C155.986 9.81818 154.946 10.1165 154.068 10.7131C153.199 11.3011 152.53 12.0682 152.061 13.0142C151.592 13.9602 151.358 14.9744 151.358 16.0568V17.7955C151.358 19.2784 151.614 20.5355 152.125 21.5668C152.645 22.5895 153.365 23.3693 154.286 23.9062C155.206 24.4347 156.276 24.6989 157.494 24.6989C158.287 24.6989 159.003 24.5881 159.642 24.3665C160.29 24.1364 160.848 23.7955 161.317 23.3438C161.786 22.8835 162.148 22.3125 162.403 21.6307L165.318 22.4489C165.011 23.4375 164.496 24.3068 163.771 25.0568C163.047 25.7983 162.152 26.3778 161.087 26.7955C160.021 27.2045 158.824 27.4091 157.494 27.4091ZM178.754 7.36364V9.92045H168.578V7.36364H178.754ZM171.544 2.65909H174.561V21.375C174.561 22.2273 174.685 22.8665 174.932 23.2926C175.188 23.7102 175.511 23.9915 175.903 24.1364C176.304 24.2727 176.726 24.3409 177.169 24.3409C177.501 24.3409 177.774 24.3239 177.987 24.2898C178.2 24.2472 178.371 24.2131 178.499 24.1875L179.112 26.8977C178.908 26.9744 178.622 27.0511 178.256 27.1278C177.889 27.2131 177.425 27.2557 176.862 27.2557C176.01 27.2557 175.175 27.0724 174.357 26.706C173.547 26.3395 172.874 25.7812 172.337 25.0312C171.808 24.2812 171.544 23.3352 171.544 22.1932V2.65909Z"
                  fill="black"/>
        </mask>
        <g mask="url(#mask0_6_18)">
            <path d="M0.198871 27H-0.00112915V27.2H0.198871V27ZM0.198871 24.6989L0.0410612 24.576L-0.00112915 24.6302V24.6989H0.198871ZM11.3466 10.3807L11.5044 10.5035L11.5466 10.4494V10.3807H11.3466ZM11.3466 10.1761H11.5466V9.97614H11.3466V10.1761ZM0.556825 10.1761H0.356825V10.3761H0.556825V10.1761ZM0.556825 7.36364V7.16364H0.356825V7.36364H0.556825ZM15.233 7.36364H15.433V7.16364H15.233V7.36364ZM15.233 9.76705L15.392 9.88832L15.433 9.8346V9.76705H15.233ZM4.39206 23.983L4.23302 23.8617L4.19206 23.9154V23.983H4.39206ZM4.39206 24.1875H4.19206V24.3875H4.39206V24.1875ZM15.5909 24.1875H15.7909V23.9875H15.5909V24.1875ZM15.5909 27V27.2H15.7909V27H15.5909ZM0.398871 27V24.6989H-0.00112915V27H0.398871ZM0.35668 24.8217L11.5044 10.5035L11.1888 10.2578L0.0410612 24.576L0.35668 24.8217ZM11.5466 10.3807V10.1761H11.1466V10.3807H11.5466ZM11.3466 9.97614H0.556825V10.3761H11.3466V9.97614ZM0.756825 10.1761V7.36364H0.356825V10.1761H0.756825ZM0.556825 7.56364H15.233V7.16364H0.556825V7.56364ZM15.033 7.36364V9.76705H15.433V7.36364H15.033ZM15.0739 9.64577L4.23302 23.8617L4.55109 24.1042L15.392 9.88832L15.0739 9.64577ZM4.19206 23.983V24.1875H4.59206V23.983H4.19206ZM4.39206 24.3875H15.5909V23.9875H4.39206V24.3875ZM15.3909 24.1875V27H15.7909V24.1875H15.3909ZM15.5909 26.8H0.198871V27.2H15.5909V26.8ZM23.0121 26.1562L22.9068 26.3263L22.9081 26.3271L23.0121 26.1562ZM19.8544 22.6278L19.6743 22.7148L19.6749 22.7161L19.8544 22.6278ZM33.3544 9.28125L33.2176 9.42716L33.2184 9.42792L33.3544 9.28125ZM36.0391 18.2045V18.4045H36.2391V18.2045H36.0391ZM20.9027 18.2045H20.7027V18.4045H20.9027V18.2045ZM20.9027 15.5966V15.3966H20.7027V15.5966H20.9027ZM32.9709 15.5966V15.7966H33.1709V15.5966H32.9709ZM32.3061 12.6307L32.1272 12.7201L32.1279 12.7215L32.3061 12.6307ZM22.5391 21.5668L22.3599 21.6556L22.3608 21.6574L22.5391 21.5668ZM24.6996 23.9062L24.5988 24.079L24.6 24.0797L24.6996 23.9062ZM30.0561 24.3665L30.1216 24.5554L30.1231 24.5549L30.0561 24.3665ZM31.7308 23.3438L31.8696 23.4878L31.8709 23.4865L31.7308 23.3438ZM32.8175 21.6307L32.8715 21.4381L32.6947 21.3885L32.6302 21.5605L32.8175 21.6307ZM35.7322 22.4489L35.9233 22.5081L35.9842 22.3119L35.7863 22.2563L35.7322 22.4489ZM34.1854 25.0568L34.3284 25.1966L34.3292 25.1958L34.1854 25.0568ZM31.5007 26.7955L31.5724 26.9822L31.5737 26.9817L31.5007 26.7955ZM27.9084 27.2091C26.0464 27.2091 24.4517 26.7984 23.1161 25.9854L22.9081 26.3271C24.3168 27.1846 25.9863 27.6091 27.9084 27.6091V27.2091ZM23.1173 25.9862C21.7872 25.1632 20.7596 24.0161 20.0339 22.5396L19.6749 22.7161C20.4321 24.2566 21.5097 25.4618 22.9068 26.3263L23.1173 25.9862ZM20.0345 22.5408C19.3169 21.0557 18.955 19.3222 18.955 17.3352H18.555C18.555 19.3709 18.926 21.1659 19.6743 22.7148L20.0345 22.5408ZM18.955 17.3352C18.955 15.3483 19.3169 13.6059 20.0349 12.1033L19.6741 11.9304C18.9262 13.4959 18.555 15.2994 18.555 17.3352H18.955ZM20.0349 12.1033C20.7619 10.5907 21.7696 9.41863 23.0573 8.5795L22.839 8.24437C21.4847 9.12683 20.4301 10.3577 19.6741 11.9304L20.0349 12.1033ZM23.0573 8.5795C24.3506 7.73387 25.863 7.30795 27.6016 7.30795V6.90795C25.7946 6.90795 24.2048 7.35136 22.839 8.24437L23.0573 8.5795ZM27.6016 7.30795C28.6016 7.30795 29.5897 7.47456 30.5667 7.80856L30.6961 7.43007C29.6787 7.08226 28.647 6.90795 27.6016 6.90795V7.30795ZM30.5667 7.80856C31.5353 8.13972 32.4188 8.67824 33.2176 9.42716L33.4912 9.13534C32.6537 8.35017 31.7218 7.78073 30.6961 7.43007L30.5667 7.80856ZM33.2184 9.42792C34.0103 10.162 34.6469 11.1404 35.1239 12.3706L35.4968 12.226C35.0023 10.9506 34.3349 9.91753 33.4904 9.13458L33.2184 9.42792ZM35.1239 12.3706C35.5981 13.5937 35.8391 15.1101 35.8391 16.9261H36.2391C36.2391 15.0774 35.9942 13.5086 35.4968 12.226L35.1239 12.3706ZM35.8391 16.9261V18.2045H36.2391V16.9261H35.8391ZM36.0391 18.0045H20.9027V18.4045H36.0391V18.0045ZM21.1027 18.2045V15.5966H20.7027V18.2045H21.1027ZM20.9027 15.7966H32.9709V15.3966H20.9027V15.7966ZM33.1709 15.5966C33.1709 14.4614 32.9437 13.4409 32.4843 12.5398L32.1279 12.7215C32.5549 13.5591 32.7709 14.5159 32.7709 15.5966H33.1709ZM32.485 12.5412C32.0341 11.6395 31.3869 10.9253 30.5451 10.4025L30.3333 10.7418C31.1109 11.2248 31.7088 11.8832 32.1272 12.7201L32.485 12.5412ZM30.546 10.403C29.7083 9.87729 28.7242 9.61818 27.6016 9.61818V10.0182C28.6607 10.0182 29.5687 10.2619 30.3333 10.7418L30.546 10.403ZM27.6016 9.61818C26.3653 9.61818 25.2851 9.92563 24.3698 10.5477L24.5943 10.8787C25.4347 10.3075 26.4345 10.0182 27.6016 10.0182V9.61818ZM24.3698 10.5477C23.4716 11.1553 22.7799 11.9486 22.2959 12.9254L22.6543 13.103C23.1078 12.1878 23.7538 11.4473 24.5943 10.8787L24.3698 10.5477ZM22.2959 12.9254C21.8132 13.8997 21.572 14.9444 21.572 16.0568H21.972C21.972 15.0044 22.1996 14.0207 22.6543 13.103L22.2959 12.9254ZM21.572 16.0568V17.7955H21.972V16.0568H21.572ZM21.572 17.7955C21.572 19.3006 21.8315 20.59 22.3599 21.6556L22.7182 21.4779C22.2239 20.4811 21.972 19.2562 21.972 17.7955H21.572ZM22.3608 21.6574C22.8967 22.7116 23.6426 23.5212 24.5988 24.079L24.8003 23.7335C23.9156 23.2174 23.2212 22.4673 22.7173 21.4761L22.3608 21.6574ZM24.6 24.0797C25.555 24.6279 26.6599 24.8989 27.9084 24.8989V24.4989C26.7193 24.4989 25.685 24.2414 24.7991 23.7328L24.6 24.0797ZM27.9084 24.8989C28.7196 24.8989 29.4581 24.7855 30.1216 24.5554L29.9906 24.1775C29.3757 24.3907 28.6824 24.4989 27.9084 24.4989V24.8989ZM30.1231 24.5549C30.7961 24.3158 31.3792 23.9603 31.8696 23.4878L31.592 23.1997C31.1449 23.6306 30.6116 23.9569 29.9892 24.178L30.1231 24.5549ZM31.8709 23.4865C32.3627 23.0037 32.7399 22.407 33.0047 21.7009L32.6302 21.5605C32.3836 22.218 32.0365 22.7634 31.5907 23.201L31.8709 23.4865ZM32.7634 21.8232L35.6782 22.6414L35.7863 22.2563L32.8715 21.4381L32.7634 21.8232ZM35.5412 22.3896C35.2438 23.3481 34.7444 24.1902 34.0415 24.9179L34.3292 25.1958C35.0752 24.4234 35.6071 23.5269 35.9233 22.5081L35.5412 22.3896ZM34.0423 24.9171C33.3397 25.6362 32.4694 26.2009 31.4277 26.6092L31.5737 26.9817C32.6627 26.5548 33.5822 25.9603 34.3284 25.1966L34.0423 24.9171ZM31.429 26.6087C30.39 27.0077 29.2174 27.2091 27.9084 27.2091V27.6091C29.2585 27.6091 30.4807 27.4014 31.5724 26.9822L31.429 26.6087ZM43.6456 27V27.2H43.8456V27H43.6456ZM40.6286 27H40.4286V27.2H40.6286V27ZM40.6286 7.36364V7.16364H40.4286V7.36364H40.6286ZM43.5433 7.36364H43.7433V7.16364H43.5433V7.36364ZM43.5433 10.4318H43.3433V10.6318H43.5433V10.4318ZM43.799 10.4318V10.6318H43.927L43.9806 10.5156L43.799 10.4318ZM45.8956 8.02841L46.0041 8.19645L46.0051 8.19575L45.8956 8.02841ZM53.0163 7.92614L52.9204 8.1016L52.9215 8.10223L53.0163 7.92614ZM56.174 27V27.2H56.374V27H56.174ZM53.157 27H52.957V27.2H53.157V27ZM43.4456 15.1875V27H43.8456V15.1875H43.4456ZM43.6456 26.8H40.6286V27.2H43.6456V26.8ZM40.8286 27V7.36364H40.4286V27H40.8286ZM40.6286 7.56364H43.5433V7.16364H40.6286V7.56364ZM43.3433 7.36364V10.4318H43.7433V7.36364H43.3433ZM43.5433 10.6318H43.799V10.2318H43.5433V10.6318ZM43.9806 10.5156C44.4247 9.55349 45.0979 8.78134 46.0041 8.19645L45.7871 7.86037C44.8183 8.48571 44.0938 9.31583 43.6174 10.348L43.9806 10.5156ZM46.0051 8.19575C46.9011 7.6093 48.0699 7.30795 49.5263 7.30795V6.90795C48.0168 6.90795 46.7651 7.22024 45.7861 7.86107L46.0051 8.19575ZM49.5263 7.30795C50.828 7.30795 51.9573 7.57478 52.9204 8.1016L53.1123 7.75067C52.0811 7.18658 50.8836 6.90795 49.5263 6.90795V7.30795ZM52.9215 8.10223C53.8794 8.61802 54.6272 9.40451 55.1644 10.4707L55.5216 10.2907C54.9509 9.15799 54.1476 8.30811 53.1112 7.75004L52.9215 8.10223ZM55.1644 10.4707C55.6999 11.5253 55.974 12.8728 55.974 14.5227H56.374C56.374 12.8317 56.094 11.418 55.5216 10.2907L55.1644 10.4707ZM55.974 14.5227V27H56.374V14.5227H55.974ZM56.174 26.8H53.157V27.2H56.174V26.8ZM53.357 27V14.7273H52.957V27H53.357ZM53.357 14.7273C53.357 13.1503 52.9469 11.8941 52.1017 10.9859L51.8082 11.2577C52.5652 12.0711 52.957 13.219 52.957 14.7273H53.357ZM52.1017 10.9859C51.2558 10.068 50.0995 9.61818 48.657 9.61818V10.0182C50.0099 10.0182 51.0518 10.437 51.8082 11.2577L52.1017 10.9859ZM48.657 9.61818C47.664 9.61818 46.7694 9.83375 45.9781 10.2694L46.171 10.6198C46.8968 10.2202 47.7238 10.0182 48.657 10.0182V9.61818ZM45.9781 10.2694C45.1928 10.7066 44.5734 11.345 44.1218 12.1773L44.4734 12.3681C44.8911 11.5982 45.4571 11.0173 46.1719 10.6193L45.9781 10.2694ZM44.1218 12.1773C43.6677 13.0143 43.4456 14.0204 43.4456 15.1875H43.8456C43.8456 14.0705 44.0581 13.1335 44.4734 12.3681L44.1218 12.1773ZM62.0962 27H61.8962V27.2H62.0962V27ZM62.0962 0.818179V0.618179H61.8962V0.818179H62.0962ZM65.1133 0.818179H65.3133V0.618179H65.1133V0.818179ZM65.1133 10.483H64.9133V10.683H65.1133V10.483ZM65.369 10.483V10.683H65.4775L65.5367 10.592L65.369 10.483ZM75.43 26.169L75.5402 26.336L75.541 26.3354L75.43 26.169ZM68.0664 26.7827L67.9684 26.957L67.9699 26.9579L68.0664 26.7827ZM66.315 25.3381L66.155 25.4581L66.1559 25.4593L66.315 25.3381ZM65.369 23.983L65.539 23.8777L65.4804 23.783H65.369V23.983ZM65.011 23.983V23.783H64.811V23.983H65.011ZM65.011 27V27.2H65.211V27H65.011ZM67.619 23.7528L67.4974 23.9117L67.4984 23.9124L67.619 23.7528ZM75.7752 13.4489L75.5879 13.5189L75.5885 13.5207L75.7752 13.4489ZM73.8704 10.8026L73.7476 10.9604L73.7494 10.9618L73.8704 10.8026ZM67.5934 10.7514L67.7118 10.9126L67.7129 10.9118L67.5934 10.7514ZM62.2962 27V0.818179H61.8962V27H62.2962ZM62.0962 1.01818H65.1133V0.618179H62.0962V1.01818ZM64.9133 0.818179V10.483H65.3133V0.818179H64.9133ZM65.1133 10.683H65.369V10.283H65.1133V10.683ZM65.5367 10.592C65.7551 10.2559 66.0592 9.82499 66.45 9.29815L66.1291 9.05938C65.7359 9.58935 65.4261 10.0281 65.2013 10.374L65.5367 10.592ZM66.45 9.29815C66.8301 8.78875 67.3771 8.32891 68.1006 7.92142L67.9043 7.5729C67.1449 8.00063 66.5502 8.49492 66.1291 9.05938L66.45 9.29815ZM68.1006 7.92142C68.8094 7.5187 69.7858 7.30795 71.0451 7.30795V6.90795C69.7476 6.90795 68.6955 7.12334 67.9043 7.5729L68.1006 7.92142ZM71.0451 7.30795C72.6635 7.30795 74.082 7.71198 75.3076 8.51529L75.5269 8.18074C74.2298 7.33064 72.7336 6.90795 71.0451 6.90795V7.30795ZM75.3076 8.51529C76.5345 9.31941 77.4957 10.461 78.1891 11.9482L78.5516 11.7791C77.8303 10.2322 76.8227 9.03002 75.5269 8.18074L75.3076 8.51529ZM78.1891 11.9482C78.8816 13.4333 79.2315 15.193 79.2315 17.233H79.6315C79.6315 15.1479 79.2739 13.328 78.5516 11.7791L78.1891 11.9482ZM79.2315 17.233C79.2315 19.2901 78.8816 21.0628 78.1889 22.5565L78.5516 22.7251C79.2738 21.1677 79.6315 19.3349 79.6315 17.233H79.2315ZM78.1889 22.5565C77.4952 24.0441 76.5381 25.1899 75.3191 26.0026L75.541 26.3354C76.8277 25.4777 77.8305 24.2716 78.5516 22.7251L78.1889 22.5565ZM75.3191 26.0026C74.1019 26.8058 72.6971 27.2091 71.0962 27.2091V27.6091C72.7681 27.6091 74.2517 27.1862 75.5402 26.336L75.3191 26.0026ZM71.0962 27.2091C69.8542 27.2091 68.8814 27.0031 68.1629 26.6075L67.9699 26.9579C68.7685 27.3975 69.8155 27.6091 71.0962 27.6091V27.2091ZM68.1644 26.6083C67.423 26.1918 66.8626 25.7268 66.4741 25.2169L66.1559 25.4593C66.5856 26.0232 67.1927 26.5212 67.9684 26.957L68.1644 26.6083ZM66.475 25.2181C66.0676 24.6749 65.7562 24.2285 65.539 23.8777L65.1989 24.0882C65.4249 24.4533 65.7442 24.9104 66.155 25.4581L66.475 25.2181ZM65.369 23.783H65.011V24.183H65.369V23.783ZM64.811 23.983V27H65.211V23.983H64.811ZM65.011 26.8H62.0962V27.2H65.011V26.8ZM64.8621 17.1818C64.8621 18.684 65.0823 20.0173 65.5274 21.1781L65.9009 21.0349C65.4767 19.9287 65.2621 18.6455 65.2621 17.1818H64.8621ZM65.5274 21.1781C65.9733 22.3323 66.6289 23.247 67.4974 23.9117L67.7405 23.594C66.9386 22.9803 66.3243 22.1306 65.9009 21.0349L65.5274 21.1781ZM67.4984 23.9124C68.3736 24.5733 69.4405 24.8989 70.6871 24.8989V24.4989C69.5133 24.4989 68.5347 24.1937 67.7395 23.5932L67.4984 23.9124ZM70.6871 24.8989C71.9853 24.8989 73.0837 24.556 73.9686 23.8588L73.721 23.5446C72.9185 24.1769 71.9118 24.4989 70.6871 24.4989V24.8989ZM73.9686 23.8588C74.8526 23.1605 75.5122 22.2254 75.9496 21.0619L75.5755 20.9203C75.1607 22.0238 74.5416 22.8964 73.721 23.5446L73.9686 23.8588ZM75.9496 21.0619C76.3941 19.8941 76.6144 18.6004 76.6144 17.1818H76.2144C76.2144 18.5587 76.0004 19.804 75.5755 20.9203L75.9496 21.0619ZM76.6144 17.1818C76.6144 15.7805 76.3981 14.5113 75.9619 13.3771L75.5885 13.5207C76.0046 14.6023 76.2144 15.8217 76.2144 17.1818H76.6144ZM75.9625 13.3788C75.5332 12.2311 74.8771 11.3165 73.9914 10.6433L73.7494 10.9618C74.5682 11.5841 75.182 12.4337 75.5879 13.5189L75.9625 13.3788ZM73.9932 10.6447C73.1078 9.95607 72.001 9.61818 70.6871 9.61818V10.0182C71.9301 10.0182 72.9455 10.3365 73.7476 10.9604L73.9932 10.6447ZM70.6871 9.61818C69.4248 9.61818 68.3495 9.93878 67.4739 10.591L67.7129 10.9118C68.5077 10.3197 69.495 10.0182 70.6871 10.0182V9.61818ZM67.475 10.5902C66.6046 11.2297 65.9525 12.1237 65.5147 13.262L65.8878 13.4061C66.3023 12.3285 66.9117 11.5004 67.7118 10.9126L67.475 10.5902ZM65.5147 13.262C65.0777 14.3894 64.8621 15.697 64.8621 17.1818H65.2621C65.2621 15.7348 65.4725 14.4776 65.8878 13.4061L65.5147 13.262ZM96.4215 7.36364V7.16364H96.2215V7.36364H96.4215ZM99.4386 7.36364H99.6386V7.16364H99.4386V7.36364ZM99.4386 27V27.2H99.6386V27H99.4386ZM96.4215 27H96.2215V27.2H96.4215V27ZM96.4215 23.6761H96.6215V23.4761H96.4215V23.6761ZM96.217 23.6761V23.4761H96.089L96.0354 23.5923L96.217 23.6761ZM94.0692 26.2202L94.1851 26.3832L94.186 26.3825L94.0692 26.2202ZM87.1147 26.4503L87.0155 26.6239L87.0166 26.6246L87.1147 26.4503ZM84.0465 7.36364V7.16364H83.8465V7.36364H84.0465ZM87.0636 7.36364H87.2636V7.16364H87.0636V7.36364ZM88.2653 23.0625L88.1195 23.1995L88.1203 23.2002L88.2653 23.0625ZM95.6161 22.0014L95.4505 21.8892L95.4497 21.8905L95.6161 22.0014ZM96.6215 18.9716V7.36364H96.2215V18.9716H96.6215ZM96.4215 7.56364H99.4386V7.16364H96.4215V7.56364ZM99.2386 7.36364V27H99.6386V7.36364H99.2386ZM99.4386 26.8H96.4215V27.2H99.4386V26.8ZM96.6215 27V23.6761H96.2215V27H96.6215ZM96.4215 23.4761H96.217V23.8761H96.4215V23.4761ZM96.0354 23.5923C95.5909 24.5554 94.8986 25.3772 93.9525 26.0578L94.186 26.3825C95.1831 25.6654 95.9226 24.7912 96.3986 23.7599L96.0354 23.5923ZM93.9534 26.0571C93.0231 26.7181 91.8391 27.0557 90.3874 27.0557V27.4557C91.9017 27.4557 93.1722 27.1029 94.1851 26.3832L93.9534 26.0571ZM90.3874 27.0557C89.1903 27.0557 88.1339 26.7941 87.2128 26.276L87.0166 26.6246C88.0046 27.1803 89.13 27.4557 90.3874 27.4557V27.0557ZM87.2139 26.2766C86.2974 25.7529 85.5734 24.9659 85.0436 23.9063L84.6855 24.0846C85.2466 25.2068 86.0229 26.0568 87.0155 26.6239L87.2139 26.2766ZM85.0436 23.9063C84.5158 22.8426 84.2465 21.4911 84.2465 19.8409H83.8465C83.8465 21.5316 84.1224 22.9494 84.6855 24.0846L85.0436 23.9063ZM84.2465 19.8409V7.36364H83.8465V19.8409H84.2465ZM84.0465 7.56364H87.0636V7.16364H84.0465V7.56364ZM86.8636 7.36364V19.6364H87.2636V7.36364H86.8636ZM86.8636 19.6364C86.8636 21.1071 87.2761 22.3022 88.1195 23.1995L88.411 22.9255C87.6522 22.1183 87.2636 21.0293 87.2636 19.6364H86.8636ZM88.1203 23.2002C88.9704 24.0951 90.0554 24.5409 91.359 24.5409V24.1409C90.157 24.1409 89.1802 23.7351 88.411 22.9255L88.1203 23.2002ZM91.359 24.5409C92.1442 24.5409 92.9371 24.34 93.736 23.9449L93.5595 23.586C92.8073 23.958 92.0739 24.1409 91.359 24.1409V24.5409ZM93.736 23.9449C94.5548 23.5444 95.2363 22.9317 95.7825 22.1124L95.4497 21.8905C94.9391 22.6564 94.3089 23.2194 93.5595 23.586L93.736 23.9449ZM95.7817 22.1136C96.3466 21.2797 96.6215 20.2276 96.6215 18.9716H96.2215C96.2215 20.1701 95.9595 21.1379 95.4505 21.8892L95.7817 22.1136ZM115.46 7.74716L115.361 7.92058L115.363 7.9219L115.46 7.74716ZM117.173 9.17898L117.012 9.29693L117.014 9.2998L117.173 9.17898ZM118.107 10.483L117.939 10.592L117.998 10.683H118.107V10.483ZM118.362 10.483V10.683H118.562V10.483H118.362ZM118.362 0.818179V0.618179H118.162V0.818179H118.362ZM121.379 0.818179H121.579V0.618179H121.379V0.818179ZM121.379 27V27.2H121.579V27H121.379ZM118.464 27H118.264V27.2H118.464V27ZM118.464 23.983H118.664V23.783H118.464V23.983ZM118.107 23.983V23.783H117.995L117.936 23.8777L118.107 23.983ZM117.161 25.3381L117.32 25.4593L117.321 25.4581L117.161 25.3381ZM115.409 26.7827L115.506 26.9579L115.507 26.957L115.409 26.7827ZM115.857 23.7528L115.977 23.9125L115.978 23.9117L115.857 23.7528ZM117.774 13.3338L117.587 13.4056L117.588 13.4061L117.774 13.3338ZM115.882 10.7514L115.763 10.9118L115.764 10.9126L115.882 10.7514ZM107.688 13.4489L107.501 13.3775L107.5 13.3783L107.688 13.4489ZM107.7 20.9915L107.513 21.0614L107.514 21.0631L107.7 20.9915ZM109.618 23.7017L109.493 23.858L109.495 23.8594L109.618 23.7017ZM112.379 27.2091C110.778 27.2091 109.373 26.8053 108.156 26.0021L107.935 26.3354C109.224 27.1856 110.707 27.6091 112.379 27.6091V27.2091ZM108.156 26.0021C106.937 25.1894 105.98 24.0437 105.286 22.5561L104.924 22.7248C105.645 24.2713 106.648 25.4777 107.935 26.3354L108.156 26.0021ZM105.287 22.5565C104.594 21.0628 104.244 19.2901 104.244 17.233H103.844C103.844 19.3349 104.202 21.1674 104.924 22.7248L105.287 22.5565ZM104.244 17.233C104.244 15.193 104.594 13.4333 105.286 11.9482L104.924 11.7791C104.202 13.328 103.844 15.1479 103.844 17.233H104.244ZM105.286 11.9482C105.98 10.461 106.941 9.31941 108.168 8.51529L107.949 8.18074C106.653 9.03002 105.645 10.2322 104.924 11.7791L105.286 11.9482ZM108.168 8.51529C109.394 7.71198 110.812 7.30795 112.43 7.30795V6.90795C110.742 6.90795 109.246 7.33064 107.949 8.18074L108.168 8.51529ZM112.43 7.30795C113.69 7.30795 114.661 7.51842 115.361 7.92058L115.56 7.57376C114.777 7.12364 113.728 6.90795 112.43 6.90795V7.30795ZM115.363 7.9219C116.095 8.32938 116.641 8.7891 117.012 9.29693L117.335 9.06104C116.922 8.495 116.326 8.00016 115.558 7.57242L115.363 7.9219ZM117.014 9.2998C117.413 9.82643 117.721 10.2568 117.939 10.592L118.274 10.374C118.049 10.0273 117.735 9.58834 117.333 9.05816L117.014 9.2998ZM118.107 10.683H118.362V10.283H118.107V10.683ZM118.562 10.483V0.818179H118.162V10.483H118.562ZM118.362 1.01818H121.379V0.618179H118.362V1.01818ZM121.179 0.818179V27H121.579V0.818179H121.179ZM121.379 26.8H118.464V27.2H121.379V26.8ZM118.664 27V23.983H118.264V27H118.664ZM118.464 23.783H118.107V24.183H118.464V23.783ZM117.936 23.8777C117.719 24.2285 117.408 24.6749 117.001 25.2181L117.321 25.4581C117.731 24.9104 118.051 24.4533 118.277 24.0882L117.936 23.8777ZM117.001 25.2169C116.613 25.7268 116.052 26.1918 115.311 26.6083L115.507 26.957C116.283 26.5212 116.89 26.0232 117.32 25.4593L117.001 25.2169ZM115.313 26.6075C114.594 27.0031 113.621 27.2091 112.379 27.2091V27.6091C113.66 27.6091 114.707 27.3975 115.506 26.9579L115.313 26.6075ZM112.788 24.8989C114.035 24.8989 115.102 24.5734 115.977 23.9125L115.736 23.5932C114.941 24.1937 113.962 24.4989 112.788 24.4989V24.8989ZM115.978 23.9117C116.847 23.247 117.502 22.3328 117.948 21.1786L117.575 21.0345C117.151 22.1302 116.537 22.9803 115.735 23.594L115.978 23.9117ZM117.948 21.1786C118.393 20.0178 118.613 18.684 118.613 17.1818H118.213C118.213 18.6455 117.999 19.9283 117.575 21.0345L117.948 21.1786ZM118.613 17.1818C118.613 15.697 118.398 14.3889 117.961 13.2615L117.588 13.4061C118.003 14.4776 118.213 15.7348 118.213 17.1818H118.613ZM117.961 13.2615C117.523 12.1232 116.871 11.2297 116.001 10.5902L115.764 10.9126C116.564 11.5004 117.173 12.328 117.587 13.4056L117.961 13.2615ZM116.002 10.591C115.126 9.93878 114.051 9.61818 112.788 9.61818V10.0182C113.981 10.0182 114.968 10.3197 115.763 10.9118L116.002 10.591ZM112.788 9.61818C111.474 9.61818 110.364 9.95609 109.47 10.6441L109.714 10.9612C110.525 10.3367 111.545 10.0182 112.788 10.0182V9.61818ZM109.471 10.6439C108.594 11.3169 107.938 12.2309 107.501 13.3775L107.874 13.5202C108.289 12.4339 108.903 11.5837 109.714 10.9612L109.471 10.6439ZM107.5 13.3783C107.073 14.5122 106.861 15.781 106.861 17.1818H107.261C107.261 15.8213 107.467 14.6014 107.875 13.5194L107.5 13.3783ZM106.861 17.1818C106.861 18.6 107.077 19.894 107.513 21.0614L107.888 20.9216C107.471 19.8049 107.261 18.5591 107.261 17.1818H106.861ZM107.514 21.0631C107.959 22.2256 108.618 23.1599 109.493 23.858L109.743 23.5454C108.93 22.897 108.311 22.0244 107.887 20.9199L107.514 21.0631ZM109.495 23.8594C110.388 24.556 111.49 24.8989 112.788 24.8989V24.4989C111.564 24.4989 110.552 24.1769 109.741 23.544L109.495 23.8594ZM131.491 34.2102L131.559 34.0219L131.557 34.0214L131.491 34.2102ZM127.222 30.8352L127.107 30.6715L126.954 30.7785L127.05 30.9381L127.222 30.8352ZM129.625 29.1477L129.784 29.0265L129.668 28.8735L129.51 28.984L129.625 29.1477ZM130.661 30.375L130.81 30.242L130.809 30.2406L130.661 30.375ZM132.374 31.5895L132.46 31.409L132.459 31.4085L132.374 31.5895ZM140.722 23.3693H140.922V23.1693H140.722V23.3693ZM140.466 23.3693V23.1693H140.354L140.296 23.264L140.466 23.3693ZM139.52 24.6989L139.362 24.5764L139.361 24.5768L139.52 24.6989ZM137.781 26.0923L137.875 26.2687L137.876 26.2684L137.781 26.0923ZM130.469 25.5682L130.366 25.7398L130.367 25.7401L130.469 25.5682ZM130.418 8.34801L130.526 8.5158L130.527 8.51529L130.418 8.34801ZM137.832 7.74716L137.734 7.92107L137.736 7.92236L137.832 7.74716ZM139.571 9.17898L139.411 9.29859L139.413 9.30141L139.571 9.17898ZM140.517 10.483L140.349 10.592L140.409 10.683H140.517V10.483ZM140.824 10.483V10.683H141.024V10.483H140.824ZM140.824 7.36364V7.16364H140.624V7.36364H140.824ZM143.739 7.36364H143.939V7.16364H143.739V7.36364ZM142.588 31.679L142.426 31.5615L142.425 31.563L142.588 31.679ZM139.52 34.0185L139.448 33.8318L139.447 33.8323L139.52 34.0185ZM131.952 10.7898L131.831 10.6305L131.83 10.6311L131.952 10.7898ZM130.047 13.3977L129.861 13.325L129.86 13.3262L130.047 13.3977ZM130.06 20.6463L129.874 20.7216L129.875 20.7234L130.06 20.6463ZM131.977 23.1009L131.862 23.2642L131.864 23.2655L131.977 23.1009ZM135.25 34.5727C133.809 34.5727 132.58 34.3872 131.559 34.0219L131.424 34.3985C132.5 34.7832 133.776 34.9727 135.25 34.9727V34.5727ZM131.557 34.0214C130.528 33.6616 129.678 33.1873 129.002 32.6016L128.74 32.904C129.461 33.5286 130.358 34.0259 131.425 34.399L131.557 34.0214ZM129.002 32.6016C128.325 32.0169 127.79 31.3935 127.393 30.7323L127.05 30.9381C127.472 31.6406 128.036 32.2955 128.74 32.904L129.002 32.6016ZM127.337 30.9989L129.74 29.3114L129.51 28.984L127.107 30.6715L127.337 30.9989ZM129.466 29.2689C129.743 29.6328 130.092 30.0464 130.512 30.5094L130.809 30.2406C130.394 29.7831 130.052 29.3786 129.784 29.0265L129.466 29.2689ZM130.511 30.508C130.951 31.0016 131.546 31.4211 132.288 31.7705L132.459 31.4085C131.752 31.0761 131.205 30.6859 130.81 30.242L130.511 30.508ZM132.288 31.7705C133.057 32.1373 134.048 32.3136 135.25 32.3136V31.9136C134.083 31.9136 133.156 31.7411 132.46 31.409L132.288 31.7705ZM135.25 32.3136C136.868 32.3136 138.221 31.9217 139.294 31.1235L139.055 30.8026C138.066 31.5385 136.802 31.9136 135.25 31.9136V32.3136ZM139.294 31.1235C140.39 30.3087 140.922 29.0385 140.922 27.358H140.522C140.522 28.9502 140.022 30.0834 139.055 30.8026L139.294 31.1235ZM140.922 27.358V23.3693H140.522V27.358H140.922ZM140.722 23.1693H140.466V23.5693H140.722V23.1693ZM140.296 23.264C140.079 23.6137 139.769 24.0507 139.362 24.5764L139.678 24.8213C140.089 24.2902 140.409 23.8409 140.636 23.4746L140.296 23.264ZM139.361 24.5768C138.983 25.0686 138.428 25.5166 137.686 25.9163L137.876 26.2684C138.652 25.8499 139.256 25.3693 139.678 24.8213L139.361 24.5768ZM137.687 25.9159C136.977 26.2951 135.999 26.4932 134.739 26.4932V26.8932C136.035 26.8932 137.086 26.6907 137.875 26.2687L137.687 25.9159ZM134.739 26.4932C133.186 26.4932 131.799 26.1264 130.571 25.3963L130.367 25.7401C131.661 26.5099 133.12 26.8932 134.739 26.8932V26.4932ZM130.571 25.3963C129.354 24.6674 128.386 23.6063 127.668 22.2043L127.312 22.3857C128.06 23.8473 129.078 24.9686 130.366 25.7398L130.571 25.3963ZM127.669 22.2052C126.962 20.808 126.603 19.102 126.603 17.0795H126.203C126.203 19.148 126.57 20.9193 127.312 22.3857L127.669 22.2052ZM126.603 17.0795C126.603 15.0915 126.953 13.3705 127.645 11.911L127.284 11.7396C126.561 13.263 126.203 15.0449 126.203 17.0795H126.603ZM127.645 11.911C128.339 10.4411 129.299 9.31168 130.526 8.5158L130.309 8.18022C129.013 9.02071 128.005 10.2095 127.284 11.7396L127.645 11.911ZM130.527 8.51529C131.753 7.71198 133.171 7.30795 134.79 7.30795V6.90795C133.101 6.90795 131.605 7.33064 130.308 8.18074L130.527 8.51529ZM134.79 7.30795C136.049 7.30795 137.025 7.51835 137.734 7.92107L137.931 7.57327C137.14 7.12371 136.087 6.90795 134.79 6.90795V7.30795ZM137.736 7.92236C138.476 8.33007 139.031 8.7902 139.411 9.29859L139.731 9.05938C139.309 8.49392 138.705 7.99947 137.929 7.57196L137.736 7.92236ZM139.413 9.30141C139.82 9.82785 140.132 10.2576 140.349 10.592L140.685 10.374C140.459 10.0265 140.14 9.58692 139.729 9.05654L139.413 9.30141ZM140.517 10.683H140.824V10.283H140.517V10.683ZM141.024 10.483V7.36364H140.624V10.483H141.024ZM140.824 7.56364H143.739V7.16364H140.824V7.56364ZM143.539 7.36364V27.5625H143.939V7.36364H143.539ZM143.539 27.5625C143.539 29.2201 143.162 30.5476 142.426 31.5615L142.75 31.7965C143.548 30.6967 143.939 29.2799 143.939 27.5625H143.539ZM142.425 31.563C141.691 32.5945 140.701 33.3507 139.448 33.8318L139.592 34.2052C140.913 33.6976 141.968 32.8941 142.751 31.795L142.425 31.563ZM139.447 33.8323C138.195 34.3248 136.797 34.5727 135.25 34.5727V34.9727C136.84 34.9727 138.288 34.7178 139.593 34.2046L139.447 33.8323ZM135.148 24.183C136.389 24.183 137.452 23.8985 138.326 23.3187L138.105 22.9853C137.309 23.5134 136.327 23.783 135.148 23.783V24.183ZM138.326 23.3187C139.199 22.7402 139.857 21.9101 140.305 20.8385L139.936 20.6842C139.515 21.6922 138.904 22.4559 138.105 22.9853L138.326 23.3187ZM140.305 20.8385C140.753 19.7684 140.973 18.4965 140.973 17.0284H140.573C140.573 18.458 140.358 19.6748 139.936 20.6842L140.305 20.8385ZM140.973 17.0284C140.973 15.5938 140.757 14.3196 140.32 13.2094L139.947 13.3559C140.363 14.4105 140.573 15.6334 140.573 17.0284H140.973ZM140.32 13.2094C139.881 12.0963 139.229 11.2161 138.36 10.5775L138.123 10.8998C138.924 11.4885 139.533 12.3042 139.947 13.3559L140.32 13.2094ZM138.36 10.5775C137.484 9.9342 136.41 9.61818 135.148 9.61818V10.0182C136.34 10.0182 137.328 10.3158 138.123 10.8998L138.36 10.5775ZM135.148 9.61818C133.834 9.61818 132.724 9.95151 131.831 10.6305L132.073 10.949C132.884 10.3326 133.904 10.0182 135.148 10.0182V9.61818ZM131.83 10.6311C130.954 11.3033 130.299 12.2036 129.861 13.325L130.233 13.4705C130.647 12.41 131.262 11.5723 132.073 10.949L131.83 10.6311ZM129.86 13.3262C129.433 14.4429 129.22 15.6778 129.22 17.0284H129.62C129.62 15.72 129.826 14.5344 130.234 13.4692L129.86 13.3262ZM129.22 17.0284C129.22 18.4127 129.437 19.645 129.874 20.7216L130.245 20.571C129.83 19.551 129.62 18.3714 129.62 17.0284H129.22ZM129.875 20.7234C130.323 21.7946 130.985 22.6439 131.862 23.2642L132.093 22.9376C131.282 22.3646 130.666 21.5776 130.244 20.5692L129.875 20.7234ZM131.864 23.2655C132.756 23.8812 133.855 24.183 135.148 24.183V23.783C133.918 23.783 132.903 23.4966 132.091 22.9362L131.864 23.2655ZM152.598 26.1562L152.493 26.3263L152.494 26.3271L152.598 26.1562ZM149.44 22.6278L149.26 22.7148L149.261 22.7161L149.44 22.6278ZM152.534 8.41193L152.643 8.5795L152.644 8.57933L152.534 8.41193ZM165.625 18.2045V18.4045H165.825V18.2045H165.625ZM150.489 18.2045H150.289V18.4045H150.489V18.2045ZM150.489 15.5966V15.3966H150.289V15.5966H150.489ZM162.557 15.5966V15.7966H162.757V15.5966H162.557ZM161.892 12.6307L161.713 12.7201L161.714 12.7215L161.892 12.6307ZM160.026 10.5724L159.919 10.7418L159.92 10.7423L160.026 10.5724ZM154.068 10.7131L154.18 10.8787L154.181 10.8785L154.068 10.7131ZM152.125 21.5668L151.946 21.6556L151.947 21.6574L152.125 21.5668ZM154.286 23.9062L154.185 24.079L154.186 24.0797L154.286 23.9062ZM159.642 24.3665L159.708 24.5554L159.709 24.5549L159.642 24.3665ZM161.317 23.3438L161.456 23.4878L161.457 23.4865L161.317 23.3438ZM162.403 21.6307L162.457 21.4381L162.281 21.3885L162.216 21.5605L162.403 21.6307ZM165.318 22.4489L165.509 22.5081L165.57 22.3119L165.372 22.2563L165.318 22.4489ZM163.771 25.0568L163.914 25.1966L163.915 25.1958L163.771 25.0568ZM161.087 26.7955L161.158 26.9822L161.16 26.9817L161.087 26.7955ZM157.494 27.2091C155.632 27.2091 154.038 26.7984 152.702 25.9854L152.494 26.3271C153.903 27.1846 155.572 27.6091 157.494 27.6091V27.2091ZM152.703 25.9862C151.373 25.1632 150.346 24.0161 149.62 22.5396L149.261 22.7161C150.018 24.2566 151.096 25.4618 152.493 26.3263L152.703 25.9862ZM149.62 22.5408C148.903 21.0557 148.541 19.3222 148.541 17.3352H148.141C148.141 19.3709 148.512 21.1659 149.26 22.7148L149.62 22.5408ZM148.541 17.3352C148.541 15.3483 148.903 13.6059 149.621 12.1033L149.26 11.9304C148.512 13.4959 148.141 15.2994 148.141 17.3352H148.541ZM149.621 12.1033C150.348 10.5907 151.356 9.41863 152.643 8.5795L152.425 8.24437C151.071 9.12683 150.016 10.3577 149.26 11.9304L149.621 12.1033ZM152.644 8.57933C153.937 7.7337 155.449 7.30795 157.188 7.30795V6.90795C155.381 6.90795 153.79 7.35136 152.425 8.24437L152.644 8.57933ZM157.188 7.30795C158.188 7.30795 159.176 7.47456 160.153 7.80856L160.282 7.43007C159.265 7.08226 158.233 6.90795 157.188 6.90795V7.30795ZM160.153 7.80856C161.121 8.13972 162.005 8.67824 162.804 9.42716L163.077 9.13534C162.24 8.35017 161.308 7.78073 160.282 7.43007L160.153 7.80856ZM162.804 9.42716C163.596 10.1612 164.233 11.1404 164.71 12.3706L165.083 12.226C164.588 10.9506 163.921 9.91753 163.076 9.13458L162.804 9.42716ZM164.71 12.3706C165.184 13.5937 165.425 15.1101 165.425 16.9261H165.825C165.825 15.0774 165.58 13.5086 165.083 12.226L164.71 12.3706ZM165.425 16.9261V18.2045H165.825V16.9261H165.425ZM165.625 18.0045H150.489V18.4045H165.625V18.0045ZM150.689 18.2045V15.5966H150.289V18.2045H150.689ZM150.489 15.7966H162.557V15.3966H150.489V15.7966ZM162.757 15.5966C162.757 14.4614 162.53 13.4409 162.07 12.5398L161.714 12.7215C162.141 13.5591 162.357 14.5159 162.357 15.5966H162.757ZM162.071 12.5412C161.62 11.6395 160.973 10.9253 160.131 10.4025L159.92 10.7423C160.698 11.2253 161.295 11.8832 161.713 12.7201L162.071 12.5412ZM160.132 10.403C159.294 9.87729 158.31 9.61818 157.188 9.61818V10.0182C158.247 10.0182 159.155 10.2619 159.919 10.7418L160.132 10.403ZM157.188 9.61818C155.951 9.61818 154.871 9.92563 153.956 10.5477L154.181 10.8785C155.021 10.3073 156.02 10.0182 157.188 10.0182V9.61818ZM153.956 10.5477C153.058 11.1553 152.366 11.9486 151.882 12.9254L152.24 13.103C152.694 12.1878 153.34 11.4473 154.18 10.8787L153.956 10.5477ZM151.882 12.9254C151.399 13.8997 151.158 14.9444 151.158 16.0568H151.558C151.558 15.0044 151.786 14.0207 152.24 13.103L151.882 12.9254ZM151.158 16.0568V17.7955H151.558V16.0568H151.158ZM151.158 17.7955C151.158 19.3006 151.417 20.59 151.946 21.6556L152.304 21.4779C151.81 20.4811 151.558 19.2562 151.558 17.7955H151.158ZM151.947 21.6574C152.483 22.7116 153.229 23.5212 154.185 24.079L154.386 23.7335C153.502 23.2174 152.807 22.4673 152.303 21.4761L151.947 21.6574ZM154.186 24.0797C155.141 24.6279 156.246 24.8989 157.494 24.8989V24.4989C156.305 24.4989 155.271 24.2414 154.385 23.7328L154.186 24.0797ZM157.494 24.8989C158.305 24.8989 159.044 24.7855 159.708 24.5554L159.577 24.1775C158.962 24.3907 158.268 24.4989 157.494 24.4989V24.8989ZM159.709 24.5549C160.382 24.3158 160.965 23.9603 161.456 23.4878L161.178 23.1997C160.731 23.6306 160.198 23.9569 159.575 24.178L159.709 24.5549ZM161.457 23.4865C161.949 23.0037 162.326 22.407 162.591 21.7009L162.216 21.5605C161.97 22.218 161.622 22.7634 161.177 23.201L161.457 23.4865ZM162.349 21.8232L165.264 22.6414L165.372 22.2563L162.457 21.4381L162.349 21.8232ZM165.127 22.3896C164.83 23.3481 164.33 24.1902 163.627 24.9179L163.915 25.1958C164.661 24.4234 165.193 23.5269 165.509 22.5081L165.127 22.3896ZM163.628 24.9171C162.926 25.6362 162.055 26.2009 161.014 26.6092L161.16 26.9817C162.249 26.5548 163.168 25.9603 163.914 25.1966L163.628 24.9171ZM161.015 26.6087C159.976 27.0077 158.803 27.2091 157.494 27.2091V27.6091C158.844 27.6091 160.067 27.4014 161.158 26.9822L161.015 26.6087ZM178.754 7.36364H178.954V7.16364H178.754V7.36364ZM178.754 9.92045V10.1205H178.954V9.92045H178.754ZM168.578 9.92045H168.378V10.1205H168.578V9.92045ZM168.578 7.36364V7.16364H168.378V7.36364H168.578ZM171.544 2.65909V2.45909H171.344V2.65909H171.544ZM174.561 2.65909H174.761V2.45909H174.561V2.65909ZM174.932 23.2926L174.759 23.393L174.761 23.397L174.932 23.2926ZM175.903 24.1364L175.834 24.324L175.839 24.3257L175.903 24.1364ZM177.987 24.2898L178.019 24.4874L178.026 24.4859L177.987 24.2898ZM178.499 24.1875L178.694 24.1433L178.651 23.9531L178.459 23.9914L178.499 24.1875ZM179.112 26.8977L179.182 27.085L179.346 27.0237L179.307 26.8536L179.112 26.8977ZM178.256 27.1278L178.215 26.932L178.21 26.933L178.256 27.1278ZM174.357 26.706L174.274 26.8882L174.275 26.8885L174.357 26.706ZM172.337 25.0312L172.173 25.1464L172.174 25.1477L172.337 25.0312ZM178.554 7.36364V9.92045H178.954V7.36364H178.554ZM178.754 9.72045H168.578V10.1205H178.754V9.72045ZM168.778 9.92045V7.36364H168.378V9.92045H168.778ZM168.578 7.56364H178.754V7.16364H168.578V7.56364ZM171.544 2.85909H174.561V2.45909H171.544V2.85909ZM174.361 2.65909V21.375H174.761V2.65909H174.361ZM174.361 21.375C174.361 22.2401 174.485 22.9215 174.759 23.393L175.105 23.1923C174.884 22.8115 174.761 22.2145 174.761 21.375H174.361ZM174.761 23.397C175.036 23.8461 175.393 24.1609 175.834 24.324L175.973 23.9488C175.63 23.822 175.339 23.5743 175.102 23.1882L174.761 23.397ZM175.839 24.3257C176.261 24.4695 176.705 24.5409 177.169 24.5409V24.1409C176.747 24.1409 176.347 24.076 175.968 23.947L175.839 24.3257ZM177.169 24.5409C177.507 24.5409 177.791 24.5238 178.019 24.4874L177.956 24.0923C177.757 24.1241 177.496 24.1409 177.169 24.1409V24.5409ZM178.026 24.4859C178.24 24.4433 178.41 24.4092 178.538 24.3836L178.459 23.9914C178.332 24.017 178.161 24.051 177.948 24.0937L178.026 24.4859ZM178.304 24.2317L178.917 26.9419L179.307 26.8536L178.694 24.1433L178.304 24.2317ZM179.042 26.7105C178.851 26.782 178.577 26.8561 178.215 26.932L178.297 27.3236C178.667 27.2461 178.964 27.1669 179.182 27.085L179.042 26.7105ZM178.21 26.933C177.864 27.0136 177.416 27.0557 176.862 27.0557V27.4557C177.433 27.4557 177.914 27.4126 178.301 27.3226L178.21 26.933ZM176.862 27.0557C176.04 27.0557 175.232 26.879 174.438 26.5234L174.275 26.8885C175.117 27.2659 175.98 27.4557 176.862 27.4557V27.0557ZM174.439 26.5238C173.663 26.1723 173.017 25.6374 172.499 24.9148L172.174 25.1477C172.731 25.9251 173.431 26.5066 174.274 26.8882L174.439 26.5238ZM172.5 24.9161C172.001 24.2072 171.744 23.3042 171.744 22.1932H171.344C171.344 23.3663 171.616 24.3553 172.173 25.1464L172.5 24.9161ZM171.744 22.1932V2.65909H171.344V22.1932H171.744Z"
                  fill="black"/>
        </g>
    </g>
    <defs>
        <filter id="filter0_d_6_18" x="0.198853" y="0.818184" width="178.913" height="34.9545"
                filterUnits="userSpaceOnUse"
                color-interpolation-filters="sRGB">
            <feFlood flood-opacity="0" result="BackgroundImageFix"/>
            <feColorMatrix in="SourceAlpha" type="matrix" values="0 0 0 0 0 0 0 0 0 0 0 0 0 0 0 0 0 0 127 0"
                           result="hardAlpha"/>
            <feOffset dy="1"/>
            <feComposite in2="hardAlpha" operator="out"/>
            <feColorMatrix type="matrix" values="0 0 0 0 0 0 0 0 0 0 0 0 0 0 0 0 0 0 0.25 0"/>
            <feBlend mode="normal" in2="BackgroundImageFix" result="effect1_dropShadow_6_18"/>
            <feBlend mode="normal" in="SourceGraphic" in2="effect1_dropShadow_6_18" result="shape"/>
        </filter>
        <clipPath id="clip0_6_18">
            <rect width="180" height="35" fill="white"/>
        </clipPath>
    </defs>
</svg>
