<svg width="182" height="35" viewBox="0 0 182 35" fill="none" xmlns="http://www.w3.org/2000/svg">
    <mask id="path-1-outside-1_6_5" maskUnits="userSpaceOnUse" x="-1" y="0" width="184" height="35" fill="black">
        <rect fill="white" x="-1" width="184" height="35"/>
        <path d="M0.160511 27V24.3793L10.7969 10.8665V10.6875H0.505682V7.36364H15.5653V10.1506L5.33807 23.4972V23.6761H15.9233V27H0.160511ZM28.3335 27.3963C26.3988 27.3963 24.7326 26.983 23.3349 26.1562C21.9457 25.321 20.8718 24.1491 20.1133 22.6406C19.3633 21.1236 18.9883 19.3466 18.9883 17.3097C18.9883 15.2983 19.3633 13.5256 20.1133 11.9915C20.8718 10.4574 21.9286 9.25994 23.2837 8.39915C24.6474 7.53835 26.2411 7.10795 28.065 7.10795C29.1729 7.10795 30.2468 7.29119 31.2866 7.65767C32.3263 8.02415 33.2596 8.59943 34.0863 9.38352C34.913 10.1676 35.565 11.1861 36.0423 12.4389C36.5195 13.6832 36.7582 15.196 36.7582 16.9773V18.3324H21.1488V15.4688H33.0124C33.0124 14.4631 32.8079 13.5724 32.3988 12.7969C31.9897 12.0128 31.4144 11.3949 30.6729 10.9432C29.94 10.4915 29.0792 10.2656 28.0906 10.2656C27.0167 10.2656 26.0792 10.5298 25.2781 11.0582C24.4854 11.5781 23.8718 12.2599 23.4371 13.1037C23.011 13.9389 22.7979 14.8466 22.7979 15.8267V18.0639C22.7979 19.3764 23.0281 20.4929 23.4883 21.4134C23.957 22.3338 24.609 23.0369 25.4442 23.5227C26.2795 24 27.2553 24.2386 28.3718 24.2386C29.0962 24.2386 29.7567 24.1364 30.3533 23.9318C30.9499 23.7187 31.4656 23.4034 31.9002 22.9858C32.3349 22.5682 32.6673 22.0526 32.8974 21.4389L36.5153 22.0909C36.2255 23.1562 35.7056 24.0895 34.9556 24.8906C34.2141 25.6832 33.2809 26.3011 32.1559 26.7443C31.0394 27.179 29.7653 27.3963 28.3335 27.3963ZM44.8217 15.3409V27H40.9993V7.36364H44.6683V10.5597H44.9112C45.3629 9.51989 46.0703 8.68466 47.0334 8.05398C48.005 7.4233 49.228 7.10795 50.7024 7.10795C52.0405 7.10795 53.2124 7.3892 54.218 7.9517C55.2237 8.50568 56.0036 9.33239 56.5575 10.4318C57.1115 11.5312 57.3885 12.8906 57.3885 14.5099V27H53.5661V14.9702C53.5661 13.5469 53.1953 12.4347 52.4538 11.6335C51.7124 10.8239 50.6939 10.419 49.3984 10.419C48.5121 10.419 47.7237 10.6108 47.0334 10.9943C46.3516 11.3778 45.8104 11.9403 45.4098 12.6818C45.0178 13.4148 44.8217 14.3011 44.8217 15.3409ZM62.8217 27V0.818181H66.6442V10.5469H66.8743C67.0959 10.1378 67.4155 9.66477 67.8331 9.12784C68.2507 8.59091 68.8303 8.12216 69.5717 7.72159C70.3132 7.3125 71.2933 7.10795 72.5121 7.10795C74.0973 7.10795 75.5121 7.50852 76.7564 8.30966C78.0007 9.1108 78.9766 10.2656 79.684 11.7741C80.3999 13.2827 80.7578 15.098 80.7578 17.2202C80.7578 19.3423 80.4041 21.1619 79.6967 22.679C78.9893 24.1875 78.0178 25.3509 76.782 26.169C75.5462 26.9787 74.1357 27.3835 72.5504 27.3835C71.3572 27.3835 70.3814 27.1832 69.6229 26.7827C68.8729 26.3821 68.2848 25.9134 67.8587 25.3764C67.4325 24.8395 67.1044 24.3622 66.8743 23.9446H66.5547V27H62.8217ZM66.5675 17.1818C66.5675 18.5625 66.7678 19.7727 67.1683 20.8125C67.5689 21.8523 68.1484 22.6662 68.907 23.2543C69.6655 23.8338 70.5945 24.1236 71.6939 24.1236C72.8359 24.1236 73.7905 23.821 74.5575 23.2159C75.3246 22.6023 75.9041 21.7713 76.2962 20.723C76.6967 19.6747 76.897 18.4943 76.897 17.1818C76.897 15.8864 76.701 14.723 76.3089 13.6918C75.9254 12.6605 75.3459 11.8466 74.5703 11.25C73.8033 10.6534 72.8445 10.3551 71.6939 10.3551C70.5859 10.3551 69.6484 10.6406 68.8814 11.2116C68.1229 11.7827 67.5476 12.5795 67.1555 13.6023C66.7635 14.625 66.5675 15.8182 66.5675 17.1818ZM97.489 18.8565V7.36364H101.324V27H97.5657V23.5994H97.3612C96.9094 24.6477 96.185 25.5213 95.1879 26.2202C94.1992 26.9105 92.9677 27.2557 91.4933 27.2557C90.2319 27.2557 89.1154 26.9787 88.1438 26.4247C87.1808 25.8622 86.4222 25.0312 85.8683 23.9318C85.3228 22.8324 85.0501 21.473 85.0501 19.8537V7.36364H88.8725V19.3935C88.8725 20.7315 89.2433 21.7969 89.9847 22.5895C90.7262 23.3821 91.6893 23.7784 92.8739 23.7784C93.5898 23.7784 94.3015 23.5994 95.0089 23.2415C95.7248 22.8835 96.3171 22.3423 96.7859 21.6179C97.2631 20.8935 97.4975 19.973 97.489 18.8565ZM113.811 27.3835C112.226 27.3835 110.811 26.9787 109.567 26.169C108.331 25.3509 107.359 24.1875 106.652 22.679C105.953 21.1619 105.604 19.3423 105.604 17.2202C105.604 15.098 105.957 13.2827 106.665 11.7741C107.381 10.2656 108.361 9.1108 109.605 8.30966C110.849 7.50852 112.26 7.10795 113.837 7.10795C115.055 7.10795 116.036 7.3125 116.777 7.72159C117.527 8.12216 118.107 8.59091 118.516 9.12784C118.933 9.66477 119.257 10.1378 119.487 10.5469H119.717V0.818181H123.54V27H119.807V23.9446H119.487C119.257 24.3622 118.925 24.8395 118.49 25.3764C118.064 25.9134 117.476 26.3821 116.726 26.7827C115.976 27.1832 115.004 27.3835 113.811 27.3835ZM114.655 24.1236C115.754 24.1236 116.683 23.8338 117.442 23.2543C118.209 22.6662 118.788 21.8523 119.18 20.8125C119.581 19.7727 119.781 18.5625 119.781 17.1818C119.781 15.8182 119.585 14.625 119.193 13.6023C118.801 12.5795 118.226 11.7827 117.467 11.2116C116.709 10.6406 115.771 10.3551 114.655 10.3551C113.504 10.3551 112.545 10.6534 111.778 11.25C111.011 11.8466 110.432 12.6605 110.04 13.6918C109.656 14.723 109.464 15.8864 109.464 17.1818C109.464 18.4943 109.661 19.6747 110.053 20.723C110.445 21.7713 111.024 22.6023 111.791 23.2159C112.567 23.821 113.521 24.1236 114.655 24.1236ZM137.228 34.7727C135.669 34.7727 134.326 34.5682 133.201 34.1591C132.085 33.75 131.173 33.2088 130.466 32.5355C129.758 31.8622 129.23 31.125 128.88 30.3239L132.166 28.9688C132.396 29.3438 132.703 29.7401 133.086 30.1577C133.478 30.5838 134.007 30.946 134.672 31.2443C135.345 31.5426 136.21 31.6918 137.267 31.6918C138.716 31.6918 139.913 31.3381 140.859 30.6307C141.805 29.9318 142.278 28.8153 142.278 27.2812V23.4205H142.035C141.805 23.8381 141.473 24.3026 141.038 24.8139C140.612 25.3253 140.024 25.7685 139.274 26.1435C138.524 26.5185 137.548 26.706 136.346 26.706C134.795 26.706 133.397 26.3437 132.153 25.6193C130.917 24.8864 129.937 23.8082 129.213 22.3849C128.497 20.9531 128.139 19.1932 128.139 17.1051C128.139 15.017 128.493 13.2273 129.2 11.7358C129.916 10.2443 130.896 9.10227 132.14 8.30966C133.385 7.50852 134.795 7.10795 136.372 7.10795C137.591 7.10795 138.575 7.3125 139.325 7.72159C140.075 8.12216 140.659 8.59091 141.076 9.12784C141.502 9.66477 141.831 10.1378 142.061 10.5469H142.342V7.36364H146.088V27.4347C146.088 29.1222 145.696 30.5071 144.912 31.5895C144.127 32.6719 143.066 33.473 141.728 33.9929C140.399 34.5128 138.899 34.7727 137.228 34.7727ZM137.19 23.5355C138.289 23.5355 139.218 23.2798 139.977 22.7685C140.744 22.2486 141.324 21.5071 141.716 20.544C142.116 19.5724 142.316 18.4091 142.316 17.054C142.316 15.733 142.12 14.5696 141.728 13.5639C141.336 12.5582 140.761 11.7741 140.002 11.2116C139.244 10.6406 138.306 10.3551 137.19 10.3551C136.039 10.3551 135.081 10.6534 134.314 11.25C133.547 11.8381 132.967 12.6392 132.575 13.6534C132.191 14.6676 132 15.8011 132 17.054C132 18.3409 132.196 19.4702 132.588 20.4418C132.98 21.4134 133.559 22.1719 134.326 22.7173C135.102 23.2628 136.056 23.5355 137.19 23.5355ZM159.677 27.3963C157.743 27.3963 156.076 26.983 154.679 26.1562C153.289 25.321 152.216 24.1491 151.457 22.6406C150.707 21.1236 150.332 19.3466 150.332 17.3097C150.332 15.2983 150.707 13.5256 151.457 11.9915C152.216 10.4574 153.272 9.25994 154.627 8.39915C155.991 7.53835 157.585 7.10795 159.409 7.10795C160.517 7.10795 161.591 7.29119 162.63 7.65767C163.67 8.02415 164.603 8.59943 165.43 9.38352C166.257 10.1676 166.909 11.1861 167.386 12.4389C167.863 13.6832 168.102 15.196 168.102 16.9773V18.3324H152.493V15.4688H164.356C164.356 14.4631 164.152 13.5724 163.743 12.7969C163.333 12.0128 162.758 11.3949 162.017 10.9432C161.284 10.4915 160.423 10.2656 159.434 10.2656C158.36 10.2656 157.423 10.5298 156.622 11.0582C155.829 11.5781 155.216 12.2599 154.781 13.1037C154.355 13.9389 154.142 14.8466 154.142 15.8267V18.0639C154.142 19.3764 154.372 20.4929 154.832 21.4134C155.301 22.3338 155.953 23.0369 156.788 23.5227C157.623 24 158.599 24.2386 159.716 24.2386C160.44 24.2386 161.1 24.1364 161.697 23.9318C162.294 23.7187 162.809 23.4034 163.244 22.9858C163.679 22.5682 164.011 22.0526 164.241 21.4389L167.859 22.0909C167.569 23.1562 167.049 24.0895 166.299 24.8906C165.558 25.6832 164.625 26.3011 163.5 26.7443C162.383 27.179 161.109 27.3963 159.677 27.3963ZM181.509 7.36364V10.4318H170.783V7.36364H181.509ZM173.66 2.65909H177.482V21.2344C177.482 21.9759 177.593 22.5341 177.815 22.9091C178.036 23.2756 178.322 23.527 178.671 23.6634C179.029 23.7912 179.417 23.8551 179.835 23.8551C180.141 23.8551 180.41 23.8338 180.64 23.7912C180.87 23.7486 181.049 23.7145 181.177 23.6889L181.867 26.8466C181.646 26.9318 181.33 27.017 180.921 27.1023C180.512 27.196 180.001 27.2472 179.387 27.2557C178.381 27.2727 177.444 27.0938 176.575 26.7188C175.705 26.3438 175.002 25.7642 174.465 24.9801C173.928 24.196 173.66 23.2116 173.66 22.027V2.65909Z"/>
    </mask>
    <g filter="url(#filter0_i_6_5)">
        <path d="M0.160511 27V24.3793L10.7969 10.8665V10.6875H0.505682V7.36364H15.5653V10.1506L5.33807 23.4972V23.6761H15.9233V27H0.160511ZM28.3335 27.3963C26.3988 27.3963 24.7326 26.983 23.3349 26.1562C21.9457 25.321 20.8718 24.1491 20.1133 22.6406C19.3633 21.1236 18.9883 19.3466 18.9883 17.3097C18.9883 15.2983 19.3633 13.5256 20.1133 11.9915C20.8718 10.4574 21.9286 9.25994 23.2837 8.39915C24.6474 7.53835 26.2411 7.10795 28.065 7.10795C29.1729 7.10795 30.2468 7.29119 31.2866 7.65767C32.3263 8.02415 33.2596 8.59943 34.0863 9.38352C34.913 10.1676 35.565 11.1861 36.0423 12.4389C36.5195 13.6832 36.7582 15.196 36.7582 16.9773V18.3324H21.1488V15.4688H33.0124C33.0124 14.4631 32.8079 13.5724 32.3988 12.7969C31.9897 12.0128 31.4144 11.3949 30.6729 10.9432C29.94 10.4915 29.0792 10.2656 28.0906 10.2656C27.0167 10.2656 26.0792 10.5298 25.2781 11.0582C24.4854 11.5781 23.8718 12.2599 23.4371 13.1037C23.011 13.9389 22.7979 14.8466 22.7979 15.8267V18.0639C22.7979 19.3764 23.0281 20.4929 23.4883 21.4134C23.957 22.3338 24.609 23.0369 25.4442 23.5227C26.2795 24 27.2553 24.2386 28.3718 24.2386C29.0962 24.2386 29.7567 24.1364 30.3533 23.9318C30.9499 23.7187 31.4656 23.4034 31.9002 22.9858C32.3349 22.5682 32.6673 22.0526 32.8974 21.4389L36.5153 22.0909C36.2255 23.1562 35.7056 24.0895 34.9556 24.8906C34.2141 25.6832 33.2809 26.3011 32.1559 26.7443C31.0394 27.179 29.7653 27.3963 28.3335 27.3963ZM44.8217 15.3409V27H40.9993V7.36364H44.6683V10.5597H44.9112C45.3629 9.51989 46.0703 8.68466 47.0334 8.05398C48.005 7.4233 49.228 7.10795 50.7024 7.10795C52.0405 7.10795 53.2124 7.3892 54.218 7.9517C55.2237 8.50568 56.0036 9.33239 56.5575 10.4318C57.1115 11.5312 57.3885 12.8906 57.3885 14.5099V27H53.5661V14.9702C53.5661 13.5469 53.1953 12.4347 52.4538 11.6335C51.7124 10.8239 50.6939 10.419 49.3984 10.419C48.5121 10.419 47.7237 10.6108 47.0334 10.9943C46.3516 11.3778 45.8104 11.9403 45.4098 12.6818C45.0178 13.4148 44.8217 14.3011 44.8217 15.3409ZM62.8217 27V0.818181H66.6442V10.5469H66.8743C67.0959 10.1378 67.4155 9.66477 67.8331 9.12784C68.2507 8.59091 68.8303 8.12216 69.5717 7.72159C70.3132 7.3125 71.2933 7.10795 72.5121 7.10795C74.0973 7.10795 75.5121 7.50852 76.7564 8.30966C78.0007 9.1108 78.9766 10.2656 79.684 11.7741C80.3999 13.2827 80.7578 15.098 80.7578 17.2202C80.7578 19.3423 80.4041 21.1619 79.6967 22.679C78.9893 24.1875 78.0178 25.3509 76.782 26.169C75.5462 26.9787 74.1357 27.3835 72.5504 27.3835C71.3572 27.3835 70.3814 27.1832 69.6229 26.7827C68.8729 26.3821 68.2848 25.9134 67.8587 25.3764C67.4325 24.8395 67.1044 24.3622 66.8743 23.9446H66.5547V27H62.8217ZM66.5675 17.1818C66.5675 18.5625 66.7678 19.7727 67.1683 20.8125C67.5689 21.8523 68.1484 22.6662 68.907 23.2543C69.6655 23.8338 70.5945 24.1236 71.6939 24.1236C72.8359 24.1236 73.7905 23.821 74.5575 23.2159C75.3246 22.6023 75.9041 21.7713 76.2962 20.723C76.6967 19.6747 76.897 18.4943 76.897 17.1818C76.897 15.8864 76.701 14.723 76.3089 13.6918C75.9254 12.6605 75.3459 11.8466 74.5703 11.25C73.8033 10.6534 72.8445 10.3551 71.6939 10.3551C70.5859 10.3551 69.6484 10.6406 68.8814 11.2116C68.1229 11.7827 67.5476 12.5795 67.1555 13.6023C66.7635 14.625 66.5675 15.8182 66.5675 17.1818ZM97.489 18.8565V7.36364H101.324V27H97.5657V23.5994H97.3612C96.9094 24.6477 96.185 25.5213 95.1879 26.2202C94.1992 26.9105 92.9677 27.2557 91.4933 27.2557C90.2319 27.2557 89.1154 26.9787 88.1438 26.4247C87.1808 25.8622 86.4222 25.0312 85.8683 23.9318C85.3228 22.8324 85.0501 21.473 85.0501 19.8537V7.36364H88.8725V19.3935C88.8725 20.7315 89.2433 21.7969 89.9847 22.5895C90.7262 23.3821 91.6893 23.7784 92.8739 23.7784C93.5898 23.7784 94.3015 23.5994 95.0089 23.2415C95.7248 22.8835 96.3171 22.3423 96.7859 21.6179C97.2631 20.8935 97.4975 19.973 97.489 18.8565ZM113.811 27.3835C112.226 27.3835 110.811 26.9787 109.567 26.169C108.331 25.3509 107.359 24.1875 106.652 22.679C105.953 21.1619 105.604 19.3423 105.604 17.2202C105.604 15.098 105.957 13.2827 106.665 11.7741C107.381 10.2656 108.361 9.1108 109.605 8.30966C110.849 7.50852 112.26 7.10795 113.837 7.10795C115.055 7.10795 116.036 7.3125 116.777 7.72159C117.527 8.12216 118.107 8.59091 118.516 9.12784C118.933 9.66477 119.257 10.1378 119.487 10.5469H119.717V0.818181H123.54V27H119.807V23.9446H119.487C119.257 24.3622 118.925 24.8395 118.49 25.3764C118.064 25.9134 117.476 26.3821 116.726 26.7827C115.976 27.1832 115.004 27.3835 113.811 27.3835ZM114.655 24.1236C115.754 24.1236 116.683 23.8338 117.442 23.2543C118.209 22.6662 118.788 21.8523 119.18 20.8125C119.581 19.7727 119.781 18.5625 119.781 17.1818C119.781 15.8182 119.585 14.625 119.193 13.6023C118.801 12.5795 118.226 11.7827 117.467 11.2116C116.709 10.6406 115.771 10.3551 114.655 10.3551C113.504 10.3551 112.545 10.6534 111.778 11.25C111.011 11.8466 110.432 12.6605 110.04 13.6918C109.656 14.723 109.464 15.8864 109.464 17.1818C109.464 18.4943 109.661 19.6747 110.053 20.723C110.445 21.7713 111.024 22.6023 111.791 23.2159C112.567 23.821 113.521 24.1236 114.655 24.1236ZM137.228 34.7727C135.669 34.7727 134.326 34.5682 133.201 34.1591C132.085 33.75 131.173 33.2088 130.466 32.5355C129.758 31.8622 129.23 31.125 128.88 30.3239L132.166 28.9688C132.396 29.3438 132.703 29.7401 133.086 30.1577C133.478 30.5838 134.007 30.946 134.672 31.2443C135.345 31.5426 136.21 31.6918 137.267 31.6918C138.716 31.6918 139.913 31.3381 140.859 30.6307C141.805 29.9318 142.278 28.8153 142.278 27.2812V23.4205H142.035C141.805 23.8381 141.473 24.3026 141.038 24.8139C140.612 25.3253 140.024 25.7685 139.274 26.1435C138.524 26.5185 137.548 26.706 136.346 26.706C134.795 26.706 133.397 26.3437 132.153 25.6193C130.917 24.8864 129.937 23.8082 129.213 22.3849C128.497 20.9531 128.139 19.1932 128.139 17.1051C128.139 15.017 128.493 13.2273 129.2 11.7358C129.916 10.2443 130.896 9.10227 132.14 8.30966C133.385 7.50852 134.795 7.10795 136.372 7.10795C137.591 7.10795 138.575 7.3125 139.325 7.72159C140.075 8.12216 140.659 8.59091 141.076 9.12784C141.502 9.66477 141.831 10.1378 142.061 10.5469H142.342V7.36364H146.088V27.4347C146.088 29.1222 145.696 30.5071 144.912 31.5895C144.127 32.6719 143.066 33.473 141.728 33.9929C140.399 34.5128 138.899 34.7727 137.228 34.7727ZM137.19 23.5355C138.289 23.5355 139.218 23.2798 139.977 22.7685C140.744 22.2486 141.324 21.5071 141.716 20.544C142.116 19.5724 142.316 18.4091 142.316 17.054C142.316 15.733 142.12 14.5696 141.728 13.5639C141.336 12.5582 140.761 11.7741 140.002 11.2116C139.244 10.6406 138.306 10.3551 137.19 10.3551C136.039 10.3551 135.081 10.6534 134.314 11.25C133.547 11.8381 132.967 12.6392 132.575 13.6534C132.191 14.6676 132 15.8011 132 17.054C132 18.3409 132.196 19.4702 132.588 20.4418C132.98 21.4134 133.559 22.1719 134.326 22.7173C135.102 23.2628 136.056 23.5355 137.19 23.5355ZM159.677 27.3963C157.743 27.3963 156.076 26.983 154.679 26.1562C153.289 25.321 152.216 24.1491 151.457 22.6406C150.707 21.1236 150.332 19.3466 150.332 17.3097C150.332 15.2983 150.707 13.5256 151.457 11.9915C152.216 10.4574 153.272 9.25994 154.627 8.39915C155.991 7.53835 157.585 7.10795 159.409 7.10795C160.517 7.10795 161.591 7.29119 162.63 7.65767C163.67 8.02415 164.603 8.59943 165.43 9.38352C166.257 10.1676 166.909 11.1861 167.386 12.4389C167.863 13.6832 168.102 15.196 168.102 16.9773V18.3324H152.493V15.4688H164.356C164.356 14.4631 164.152 13.5724 163.743 12.7969C163.333 12.0128 162.758 11.3949 162.017 10.9432C161.284 10.4915 160.423 10.2656 159.434 10.2656C158.36 10.2656 157.423 10.5298 156.622 11.0582C155.829 11.5781 155.216 12.2599 154.781 13.1037C154.355 13.9389 154.142 14.8466 154.142 15.8267V18.0639C154.142 19.3764 154.372 20.4929 154.832 21.4134C155.301 22.3338 155.953 23.0369 156.788 23.5227C157.623 24 158.599 24.2386 159.716 24.2386C160.44 24.2386 161.1 24.1364 161.697 23.9318C162.294 23.7187 162.809 23.4034 163.244 22.9858C163.679 22.5682 164.011 22.0526 164.241 21.4389L167.859 22.0909C167.569 23.1562 167.049 24.0895 166.299 24.8906C165.558 25.6832 164.625 26.3011 163.5 26.7443C162.383 27.179 161.109 27.3963 159.677 27.3963ZM181.509 7.36364V10.4318H170.783V7.36364H181.509ZM173.66 2.65909H177.482V21.2344C177.482 21.9759 177.593 22.5341 177.815 22.9091C178.036 23.2756 178.322 23.527 178.671 23.6634C179.029 23.7912 179.417 23.8551 179.835 23.8551C180.141 23.8551 180.41 23.8338 180.64 23.7912C180.87 23.7486 181.049 23.7145 181.177 23.6889L181.867 26.8466C181.646 26.9318 181.33 27.017 180.921 27.1023C180.512 27.196 180.001 27.2472 179.387 27.2557C178.381 27.2727 177.444 27.0938 176.575 26.7188C175.705 26.3438 175.002 25.7642 174.465 24.9801C173.928 24.196 173.66 23.2116 173.66 22.027V2.65909Z"
              fill="#FCFCFC"/>
    </g>
    <path d="M0.160511 27H-0.0394886V27.2H0.160511V27ZM0.160511 24.3793L0.00335618 24.2556L-0.0394886 24.31V24.3793H0.160511ZM10.7969 10.8665L10.954 10.9902L10.9969 10.9357V10.8665H10.7969ZM10.7969 10.6875H10.9969V10.4875H10.7969V10.6875ZM0.505682 10.6875H0.305682V10.8875H0.505682V10.6875ZM0.505682 7.36364V7.16364H0.305682V7.36364H0.505682ZM15.5653 7.36364H15.7653V7.16364H15.5653V7.36364ZM15.5653 10.1506L15.7241 10.2722L15.7653 10.2184V10.1506H15.5653ZM5.33807 23.4972L5.17932 23.3755L5.13807 23.4293V23.4972H5.33807ZM5.33807 23.6761H5.13807V23.8761H5.33807V23.6761ZM15.9233 23.6761H16.1233V23.4761H15.9233V23.6761ZM15.9233 27V27.2H16.1233V27H15.9233ZM0.360511 27V24.3793H-0.0394886V27H0.360511ZM0.317667 24.503L10.954 10.9902L10.6397 10.7428L0.00335618 24.2556L0.317667 24.503ZM10.9969 10.8665V10.6875H10.5969V10.8665H10.9969ZM10.7969 10.4875H0.505682V10.8875H10.7969V10.4875ZM0.705682 10.6875V7.36364H0.305682V10.6875H0.705682ZM0.505682 7.56364H15.5653V7.16364H0.505682V7.56364ZM15.3653 7.36364V10.1506H15.7653V7.36364H15.3653ZM15.4066 10.0289L5.17932 23.3755L5.49682 23.6188L15.7241 10.2722L15.4066 10.0289ZM5.13807 23.4972V23.6761H5.53807V23.4972H5.13807ZM5.33807 23.8761H15.9233V23.4761H5.33807V23.8761ZM15.7233 23.6761V27H16.1233V23.6761H15.7233ZM15.9233 26.8H0.160511V27.2H15.9233V26.8ZM23.3349 26.1562L23.2318 26.3277L23.2331 26.3284L23.3349 26.1562ZM20.1133 22.6406L19.934 22.7293L19.9346 22.7305L20.1133 22.6406ZM20.1133 11.9915L19.934 11.9028L19.9336 11.9036L20.1133 11.9915ZM23.2837 8.39915L23.177 8.23002L23.1765 8.23033L23.2837 8.39915ZM31.2866 7.65767L31.3531 7.46904L31.3531 7.46904L31.2866 7.65767ZM34.0863 9.38352L33.9487 9.52863L33.9487 9.52863L34.0863 9.38352ZM36.0423 12.4389L35.8554 12.5101L35.8555 12.5105L36.0423 12.4389ZM36.7582 18.3324V18.5324H36.9582V18.3324H36.7582ZM21.1488 18.3324H20.9488V18.5324H21.1488V18.3324ZM21.1488 15.4688V15.2687H20.9488V15.4688H21.1488ZM33.0124 15.4688V15.6688H33.2124V15.4688H33.0124ZM32.3988 12.7969L32.2215 12.8894L32.2219 12.8902L32.3988 12.7969ZM30.6729 10.9432L30.568 11.1134L30.5689 11.114L30.6729 10.9432ZM25.2781 11.0582L25.3877 11.2255L25.3882 11.2252L25.2781 11.0582ZM23.4371 13.1037L23.2593 13.0121L23.259 13.0128L23.4371 13.1037ZM23.4883 21.4134L23.3094 21.5028L23.3101 21.5041L23.4883 21.4134ZM25.4442 23.5227L25.3437 23.6956L25.345 23.6964L25.4442 23.5227ZM30.3533 23.9318L30.4182 24.121L30.4206 24.1202L30.3533 23.9318ZM31.9002 22.9858L31.7616 22.8416L31.7616 22.8416L31.9002 22.9858ZM32.8974 21.4389L32.9328 21.2421L32.7687 21.2125L32.7101 21.3687L32.8974 21.4389ZM36.5153 22.0909L36.7083 22.1434L36.7655 21.9328L36.5507 21.8941L36.5153 22.0909ZM34.9556 24.8906L34.8096 24.7539L34.8096 24.754L34.9556 24.8906ZM32.1559 26.7443L32.2285 26.9307L32.2292 26.9304L32.1559 26.7443ZM28.3335 27.1963C26.4277 27.1963 24.7981 26.7894 23.4367 25.9841L23.2331 26.3284C24.6671 27.1765 26.3699 27.5963 28.3335 27.5963V27.1963ZM23.4379 25.9848C22.0825 25.1699 21.0342 24.027 20.292 22.5508L19.9346 22.7305C20.7094 24.2713 21.8088 25.4721 23.2318 26.3277L23.4379 25.9848ZM20.2926 22.552C19.5587 21.0676 19.1883 19.322 19.1883 17.3097H18.7883C18.7883 19.3711 19.1679 21.1796 19.934 22.7293L20.2926 22.552ZM19.1883 17.3097C19.1883 15.3234 19.5585 13.5816 20.293 12.0793L19.9336 11.9036C19.1681 13.4695 18.7883 15.2732 18.7883 17.3097H19.1883ZM20.2926 12.0801C21.036 10.5766 22.0688 9.40783 23.391 8.56797L23.1765 8.23033C21.7884 9.11206 20.7076 10.3382 19.934 11.9028L20.2926 12.0801ZM23.3905 8.56827C24.7181 7.7302 26.2738 7.30795 28.065 7.30795V6.90795C26.2084 6.90795 24.5766 7.3465 23.177 8.23002L23.3905 8.56827ZM28.065 7.30795C29.1504 7.30795 30.2018 7.48739 31.2201 7.8463L31.3531 7.46904C30.2918 7.095 29.1955 6.90795 28.065 6.90795V7.30795ZM31.2201 7.8463C32.2325 8.20311 33.1417 8.76322 33.9487 9.52863L34.2239 9.23841C33.3775 8.43564 32.4202 7.84518 31.3531 7.46904L31.2201 7.8463ZM33.9487 9.52863C34.7501 10.2888 35.3869 11.2804 35.8554 12.5101L36.2292 12.3677C35.7431 11.0918 35.0759 10.0465 34.2239 9.23841L33.9487 9.52863ZM35.8555 12.5105C36.3216 13.7257 36.5582 15.2128 36.5582 16.9773H36.9582C36.9582 15.1793 36.7174 13.6407 36.229 12.3673L35.8555 12.5105ZM36.5582 16.9773V18.3324H36.9582V16.9773H36.5582ZM36.7582 18.1324H21.1488V18.5324H36.7582V18.1324ZM21.3488 18.3324V15.4688H20.9488V18.3324H21.3488ZM21.1488 15.6688H33.0124V15.2687H21.1488V15.6688ZM33.2124 15.4688C33.2124 14.4354 33.0021 13.5119 32.5757 12.7036L32.2219 12.8902C32.6137 13.633 32.8124 14.4908 32.8124 15.4688H33.2124ZM32.5761 12.7044C32.1505 11.8886 31.5502 11.2434 30.777 10.7724L30.5689 11.114C31.2787 11.5464 31.8289 12.1369 32.2215 12.8894L32.5761 12.7044ZM30.7779 10.7729C30.0089 10.299 29.1106 10.0656 28.0906 10.0656V10.4656C29.0477 10.4656 29.8711 10.6839 30.568 11.1134L30.7779 10.7729ZM28.0906 10.0656C26.9824 10.0656 26.0056 10.3388 25.1679 10.8913L25.3882 11.2252C26.1528 10.7208 27.051 10.4656 28.0906 10.4656V10.0656ZM25.1684 10.891C24.3469 11.4298 23.7098 12.1377 23.2594 13.0121L23.6149 13.1953C24.0338 12.3822 24.624 11.7264 25.3877 11.2255L25.1684 10.891ZM23.259 13.0128C22.8178 13.8775 22.5979 14.8165 22.5979 15.8267H22.9979C22.9979 14.8767 23.2042 14.0004 23.6153 13.1946L23.259 13.0128ZM22.5979 15.8267V18.0639H22.9979V15.8267H22.5979ZM22.5979 18.0639C22.5979 19.3992 22.832 20.548 23.3094 21.5028L23.6672 21.3239C23.2241 20.4378 22.9979 19.3537 22.9979 18.0639H22.5979ZM23.3101 21.5041C23.795 22.4564 24.4729 23.1891 25.3437 23.6956L25.5448 23.3498C24.7451 22.8847 24.1191 22.2112 23.6665 21.3226L23.3101 21.5041ZM25.345 23.6964C26.215 24.1935 27.2262 24.4386 28.3718 24.4386V24.0386C27.2845 24.0386 26.3439 23.8065 25.5435 23.3491L25.345 23.6964ZM28.3718 24.4386C29.1151 24.4386 29.7979 24.3337 30.4182 24.121L30.2885 23.7426C29.7156 23.939 29.0774 24.0386 28.3718 24.0386V24.4386ZM30.4206 24.1202C31.0424 23.8981 31.5827 23.5682 32.0388 23.13L31.7616 22.8416C31.3484 23.2386 30.8574 23.5394 30.2861 23.7435L30.4206 24.1202ZM32.0388 23.13C32.4968 22.6899 32.845 22.1483 33.0846 21.5091L32.7101 21.3687C32.4896 21.9568 32.1729 22.4464 31.7616 22.8416L32.0388 23.13ZM32.8619 21.6357L36.4798 22.2877L36.5507 21.8941L32.9328 21.2421L32.8619 21.6357ZM36.3223 22.0384C36.041 23.0725 35.5372 23.9768 34.8096 24.7539L35.1016 25.0273C35.874 24.2022 36.41 23.24 36.7083 22.1434L36.3223 22.0384ZM34.8096 24.754C34.0906 25.5226 33.1831 26.1247 32.0826 26.5582L32.2292 26.9304C33.3786 26.4776 34.3377 25.8439 35.1017 25.0273L34.8096 24.754ZM32.0833 26.5579C30.994 26.982 29.7452 27.1963 28.3335 27.1963V27.5963C29.7854 27.5963 31.0848 27.3759 32.2285 26.9307L32.0833 26.5579ZM44.8217 27V27.2H45.0217V27H44.8217ZM40.9993 27H40.7993V27.2H40.9993V27ZM40.9993 7.36364V7.16364H40.7993V7.36364H40.9993ZM44.6683 7.36364H44.8683V7.16364H44.6683V7.36364ZM44.6683 10.5597H44.4683V10.7597H44.6683V10.5597ZM44.9112 10.5597V10.7597H45.0424L45.0947 10.6393L44.9112 10.5597ZM47.0334 8.05398L46.9245 7.88622L46.9238 7.88666L47.0334 8.05398ZM54.218 7.9517L54.1204 8.12626L54.1215 8.12689L54.218 7.9517ZM56.5575 10.4318L56.3789 10.5218L56.3789 10.5218L56.5575 10.4318ZM57.3885 27V27.2H57.5885V27H57.3885ZM53.5661 27H53.3661V27.2H53.5661V27ZM52.4538 11.6335L52.3063 11.7686L52.3071 11.7694L52.4538 11.6335ZM47.0334 10.9943L46.9363 10.8195L46.9353 10.82L47.0334 10.9943ZM45.4098 12.6818L45.2338 12.5868L45.2334 12.5875L45.4098 12.6818ZM44.6217 15.3409V27H45.0217V15.3409H44.6217ZM44.8217 26.8H40.9993V27.2H44.8217V26.8ZM41.1993 27V7.36364H40.7993V27H41.1993ZM40.9993 7.56364H44.6683V7.16364H40.9993V7.56364ZM44.4683 7.36364V10.5597H44.8683V7.36364H44.4683ZM44.6683 10.7597H44.9112V10.3597H44.6683V10.7597ZM45.0947 10.6393C45.5306 9.63595 46.212 8.83095 47.143 8.22129L46.9238 7.88666C45.9286 8.53837 45.1953 9.40382 44.7278 10.48L45.0947 10.6393ZM47.1423 8.22173C48.0737 7.61715 49.2562 7.30795 50.7024 7.30795V6.90795C49.1998 6.90795 47.9363 7.22944 46.9245 7.88622L47.1423 8.22173ZM50.7024 7.30795C52.0119 7.30795 53.1491 7.58296 54.1204 8.12626L54.3157 7.77715C53.2757 7.19545 52.0691 6.90795 50.7024 6.90795V7.30795ZM54.1215 8.12689C55.0893 8.65997 55.8417 9.45567 56.3789 10.5218L56.7361 10.3418C56.1654 9.2091 55.3581 8.35139 54.3145 7.77652L54.1215 8.12689ZM56.3789 10.5218C56.9151 11.586 57.1885 12.9124 57.1885 14.5099H57.5885C57.5885 12.8688 57.3079 11.4765 56.7361 10.3418L56.3789 10.5218ZM57.1885 14.5099V27H57.5885V14.5099H57.1885ZM57.3885 26.8H53.5661V27.2H57.3885V26.8ZM53.7661 27V14.9702H53.3661V27H53.7661ZM53.7661 14.9702C53.7661 13.5123 53.3857 12.3459 52.6006 11.4977L52.3071 11.7694C53.0049 12.5234 53.3661 13.5815 53.3661 14.9702H53.7661ZM52.6013 11.4984C51.8151 10.6399 50.739 10.219 49.3984 10.219V10.619C50.6488 10.619 51.6096 11.0078 52.3063 11.7686L52.6013 11.4984ZM49.3984 10.219C48.4823 10.219 47.6598 10.4175 46.9363 10.8195L47.1305 11.1691C47.7876 10.8041 48.5418 10.619 49.3984 10.619V10.219ZM46.9353 10.82C46.218 11.2235 45.6509 11.8147 45.2338 12.5868L45.5858 12.7769C45.9698 12.066 46.4851 11.5322 47.1314 11.1686L46.9353 10.82ZM45.2334 12.5875C44.8225 13.3559 44.6217 14.2763 44.6217 15.3409H45.0217C45.0217 14.3259 45.2131 13.4737 45.5862 12.7761L45.2334 12.5875ZM62.8217 27H62.6217V27.2H62.8217V27ZM62.8217 0.818181V0.618181H62.6217V0.818181H62.8217ZM66.6442 0.818181H66.8442V0.618181H66.6442V0.818181ZM66.6442 10.5469H66.4442V10.7469H66.6442V10.5469ZM66.8743 10.5469V10.7469H66.9934L67.0501 10.6421L66.8743 10.5469ZM67.8331 9.12784L67.991 9.25063L67.991 9.25063L67.8331 9.12784ZM69.5717 7.72159L69.6668 7.89756L69.6683 7.89671L69.5717 7.72159ZM76.7564 8.30966L76.6481 8.47782L76.6481 8.47782L76.7564 8.30966ZM79.684 11.7741L79.5029 11.8591L79.5033 11.8599L79.684 11.7741ZM79.6967 22.679L79.8778 22.7639L79.878 22.7635L79.6967 22.679ZM76.782 26.169L76.8916 26.3363L76.8924 26.3358L76.782 26.169ZM69.6229 26.7827L69.5286 26.9591L69.5295 26.9595L69.6229 26.7827ZM67.8587 25.3764L67.702 25.5008L67.702 25.5008L67.8587 25.3764ZM66.8743 23.9446L67.0495 23.8481L66.9924 23.7446H66.8743V23.9446ZM66.5547 23.9446V23.7446H66.3547V23.9446H66.5547ZM66.5547 27V27.2H66.7547V27H66.5547ZM67.1683 20.8125L66.9817 20.8844L66.9817 20.8844L67.1683 20.8125ZM68.907 23.2543L68.7844 23.4123L68.7855 23.4132L68.907 23.2543ZM74.5575 23.2159L74.6814 23.3729L74.6825 23.3721L74.5575 23.2159ZM76.2962 20.723L76.1093 20.6516L76.1088 20.653L76.2962 20.723ZM76.3089 13.6918L76.1215 13.7615L76.122 13.7628L76.3089 13.6918ZM74.5703 11.25L74.4475 11.4079L74.4484 11.4085L74.5703 11.25ZM68.8814 11.2116L68.762 11.0512L68.7611 11.0519L68.8814 11.2116ZM67.1555 13.6023L66.9688 13.5307L66.9688 13.5307L67.1555 13.6023ZM63.0217 27V0.818181H62.6217V27H63.0217ZM62.8217 1.01818H66.6442V0.618181H62.8217V1.01818ZM66.4442 0.818181V10.5469H66.8442V0.818181H66.4442ZM66.6442 10.7469H66.8743V10.3469H66.6442V10.7469ZM67.0501 10.6421C67.2647 10.246 67.5773 9.78247 67.991 9.25063L67.6752 9.00505C67.2537 9.54708 66.927 10.0296 66.6984 10.4516L67.0501 10.6421ZM67.991 9.25063C68.388 8.74015 68.944 8.288 69.6668 7.89755L69.4767 7.54563C68.7165 7.95631 68.1134 8.44166 67.6752 9.00505L67.991 9.25063ZM69.6683 7.89671C70.3701 7.50955 71.3132 7.30795 72.5121 7.30795V6.90795C71.2734 6.90795 70.2563 7.11545 69.4751 7.54647L69.6683 7.89671ZM72.5121 7.30795C74.0618 7.30795 75.4384 7.69896 76.6481 8.47782L76.8647 8.1415C75.5857 7.31808 74.1328 6.90795 72.5121 6.90795V7.30795ZM76.6481 8.47782C77.857 9.25612 78.8094 10.3802 79.5029 11.8591L79.865 11.6892C79.1437 10.1511 78.1444 8.96547 76.8647 8.1415L76.6481 8.47782ZM79.5033 11.8599C80.2035 13.3354 80.5578 15.1199 80.5578 17.2202H80.9578C80.9578 15.0761 80.5962 13.23 79.8646 11.6884L79.5033 11.8599ZM80.5578 17.2202C80.5578 19.3207 80.2077 21.11 79.5155 22.5945L79.878 22.7635C80.6006 21.2139 80.9578 19.364 80.9578 17.2202H80.5578ZM79.5157 22.5941C78.8219 24.0736 77.873 25.2068 76.6716 26.0023L76.8924 26.3358C78.1625 25.4949 79.1568 24.3014 79.8778 22.7639L79.5157 22.5941ZM76.6724 26.0017C75.4715 26.7885 74.0997 27.1835 72.5504 27.1835V27.5835C74.1716 27.5835 75.6208 27.1689 76.8916 26.3363L76.6724 26.0017ZM72.5504 27.1835C71.3778 27.1835 70.437 26.9864 69.7163 26.6058L69.5295 26.9595C70.3258 27.3801 71.3367 27.5835 72.5504 27.5835V27.1835ZM69.7171 26.6063C68.9856 26.2156 68.4209 25.7631 68.0153 25.2521L67.702 25.5008C68.1487 26.0636 68.7601 26.5486 69.5286 26.9591L69.7171 26.6063ZM68.0153 25.2521C67.5934 24.7205 67.2724 24.2527 67.0495 23.8481L66.6991 24.0411C66.9364 24.4717 67.2717 24.9585 67.702 25.5008L68.0153 25.2521ZM66.8743 23.7446H66.5547V24.1446H66.8743V23.7446ZM66.3547 23.9446V27H66.7547V23.9446H66.3547ZM66.5547 26.8H62.8217V27.2H66.5547V26.8ZM66.3675 17.1818C66.3675 18.5814 66.5705 19.8169 66.9817 20.8844L67.355 20.7406C66.9651 19.7285 66.7675 18.5436 66.7675 17.1818H66.3675ZM66.9817 20.8844C67.3932 21.9526 67.9927 22.7985 68.7844 23.4123L69.0295 23.0962C68.3042 22.5339 67.7446 21.7519 67.355 20.7406L66.9817 20.8844ZM68.7855 23.4132C69.5841 24.0233 70.5575 24.3236 71.6939 24.3236V23.9236C70.6314 23.9236 69.7469 23.6443 69.0284 23.0953L68.7855 23.4132ZM71.6939 24.3236C72.873 24.3236 73.8733 24.0104 74.6814 23.3729L74.4337 23.0589C73.7077 23.6316 72.7989 23.9236 71.6939 23.9236V24.3236ZM74.6825 23.3721C75.4815 22.7329 76.0806 21.8704 76.4835 20.7931L76.1088 20.653C75.7276 21.6722 75.1677 22.4717 74.4326 23.0597L74.6825 23.3721ZM76.483 20.7944C76.8936 19.7198 77.097 18.5147 77.097 17.1818H76.697C76.697 18.474 76.4999 19.6296 76.1093 20.6516L76.483 20.7944ZM77.097 17.1818C77.097 15.8662 76.8979 14.6782 76.4959 13.6207L76.122 13.7628C76.5041 14.7678 76.697 15.9065 76.697 17.1818H77.097ZM76.4964 13.622C76.1015 12.5601 75.5011 11.7137 74.6923 11.0915L74.4484 11.4085C75.1906 11.9795 75.7494 12.7609 76.1215 13.7615L76.4964 13.622ZM74.6931 11.0921C73.8848 10.4634 72.8804 10.1551 71.6939 10.1551V10.5551C72.8085 10.5551 73.7217 10.8434 74.4475 11.4079L74.6931 11.0921ZM71.6939 10.1551C70.55 10.1551 69.5688 10.4506 68.762 11.0512L69.0008 11.3721C69.7281 10.8307 70.6219 10.5551 71.6939 10.5551V10.1551ZM68.7611 11.0519C67.9682 11.6488 67.3722 12.4784 66.9688 13.5307L67.3423 13.6739C67.723 12.6807 68.2775 11.9166 69.0017 11.3714L68.7611 11.0519ZM66.9688 13.5307C66.5661 14.5811 66.3675 15.7995 66.3675 17.1818H66.7675C66.7675 15.8369 66.9609 14.6689 67.3423 13.6739L66.9688 13.5307ZM97.489 18.8565H97.289L97.289 18.8581L97.489 18.8565ZM97.489 7.36364V7.16364H97.289V7.36364H97.489ZM101.324 7.36364H101.524V7.16364H101.324V7.36364ZM101.324 27V27.2H101.524V27H101.324ZM97.5657 27H97.3657V27.2H97.5657V27ZM97.5657 23.5994H97.7657V23.3994H97.5657V23.5994ZM97.3612 23.5994V23.3994H97.2296L97.1775 23.5203L97.3612 23.5994ZM95.1879 26.2202L95.3024 26.3841L95.3026 26.384L95.1879 26.2202ZM88.1438 26.4247L88.0429 26.5974L88.0448 26.5985L88.1438 26.4247ZM85.8683 23.9318L85.6891 24.0207L85.6896 24.0218L85.8683 23.9318ZM85.0501 7.36364V7.16364H84.8501V7.36364H85.0501ZM88.8725 7.36364H89.0725V7.16364H88.8725V7.36364ZM89.9847 22.5895L90.1308 22.4529L90.1308 22.4529L89.9847 22.5895ZM95.0089 23.2415L94.9194 23.0626L94.9186 23.063L95.0089 23.2415ZM96.7859 21.6179L96.6188 21.5079L96.618 21.5092L96.7859 21.6179ZM97.689 18.8565V7.36364H97.289V18.8565H97.689ZM97.489 7.56364H101.324V7.16364H97.489V7.56364ZM101.124 7.36364V27H101.524V7.36364H101.124ZM101.324 26.8H97.5657V27.2H101.324V26.8ZM97.7657 27V23.5994H97.3657V27H97.7657ZM97.5657 23.3994H97.3612V23.7994H97.5657V23.3994ZM97.1775 23.5203C96.7414 24.5322 96.042 25.3773 95.0731 26.0564L95.3026 26.384C96.3281 25.6653 97.0775 24.7632 97.5448 23.6786L97.1775 23.5203ZM95.0734 26.0562C94.1252 26.7183 92.936 27.0557 91.4933 27.0557V27.4557C92.9994 27.4557 94.2733 27.1027 95.3024 26.3841L95.0734 26.0562ZM91.4933 27.0557C90.2621 27.0557 89.1806 26.7856 88.2429 26.251L88.0448 26.5985C89.0502 27.1718 90.2017 27.4557 91.4933 27.4557V27.0557ZM88.2447 26.252C87.3184 25.711 86.5853 24.9105 86.0469 23.8418L85.6896 24.0218C86.2591 25.152 87.0431 26.0134 88.043 26.5974L88.2447 26.252ZM86.0474 23.8429C85.5193 22.7785 85.2501 21.4516 85.2501 19.8537H84.8501C84.8501 21.4944 85.1263 22.8863 85.6891 24.0207L86.0474 23.8429ZM85.2501 19.8537V7.36364H84.8501V19.8537H85.2501ZM85.0501 7.56364H88.8725V7.16364H85.0501V7.56364ZM88.6725 7.36364V19.3935H89.0725V7.36364H88.6725ZM88.6725 19.3935C88.6725 20.7699 89.0549 21.8883 89.8387 22.7261L90.1308 22.4529C89.4316 21.7055 89.0725 20.6932 89.0725 19.3935H88.6725ZM89.8387 22.7261C90.6217 23.5631 91.6396 23.9784 92.8739 23.9784V23.5784C91.739 23.5784 90.8308 23.2011 90.1308 22.4529L89.8387 22.7261ZM92.8739 23.9784C93.6245 23.9784 94.3668 23.7905 95.0992 23.4199L94.9186 23.063C94.2361 23.4084 93.5552 23.5784 92.8739 23.5784V23.9784ZM95.0983 23.4204C95.8487 23.0452 96.4672 22.4786 96.9538 21.7265L96.618 21.5092C96.167 22.2061 95.6009 22.7219 94.9194 23.0626L95.0983 23.4204ZM96.9529 21.7279C97.4574 20.9621 97.6977 19.9998 97.689 18.855L97.289 18.8581C97.2973 19.9462 97.0688 20.8248 96.6189 21.5079L96.9529 21.7279ZM109.567 26.169L109.456 26.3358L109.458 26.3367L109.567 26.169ZM106.652 22.679L106.47 22.7627L106.471 22.7639L106.652 22.679ZM106.665 11.7741L106.484 11.6884L106.484 11.6892L106.665 11.7741ZM109.605 8.30966L109.713 8.47782L109.713 8.47782L109.605 8.30966ZM116.777 7.72159L116.68 7.89672L116.683 7.89801L116.777 7.72159ZM118.516 9.12784L118.357 9.24906L118.358 9.25063L118.516 9.12784ZM119.487 10.5469L119.313 10.6449L119.37 10.7469H119.487V10.5469ZM119.717 10.5469V10.7469H119.917V10.5469H119.717ZM119.717 0.818181V0.618181H119.517V0.818181H119.717ZM123.54 0.818181H123.74V0.618181H123.54V0.818181ZM123.54 27V27.2H123.74V27H123.54ZM119.807 27H119.607V27.2H119.807V27ZM119.807 23.9446H120.007V23.7446H119.807V23.9446ZM119.487 23.9446V23.7446H119.369L119.312 23.8481L119.487 23.9446ZM118.49 25.3764L118.335 25.2506L118.333 25.2521L118.49 25.3764ZM116.726 26.7827L116.632 26.6063L116.726 26.7827ZM117.442 23.2543L117.563 23.4132L117.563 23.413L117.442 23.2543ZM119.18 20.8125L118.994 20.7406L118.993 20.7419L119.18 20.8125ZM119.193 13.6023L119.006 13.6739L119.006 13.6739L119.193 13.6023ZM117.467 11.2116L117.347 11.3714L117.347 11.3714L117.467 11.2116ZM111.778 11.25L111.901 11.4079L111.901 11.4079L111.778 11.25ZM110.04 13.6918L109.853 13.6207L109.852 13.622L110.04 13.6918ZM110.053 20.723L110.24 20.653L110.24 20.653L110.053 20.723ZM111.791 23.2159L111.666 23.3721L111.668 23.3736L111.791 23.2159ZM113.811 27.1835C112.262 27.1835 110.885 26.7885 109.676 26.0014L109.458 26.3367C110.737 27.1689 112.19 27.5835 113.811 27.5835V27.1835ZM109.677 26.0023C108.476 25.2068 107.527 24.0736 106.833 22.5941L106.471 22.7639C107.192 24.3014 108.186 25.4949 109.456 26.3358L109.677 26.0023ZM106.834 22.5953C106.15 21.1106 105.804 19.321 105.804 17.2202H105.404C105.404 19.3637 105.757 21.2133 106.47 22.7627L106.834 22.5953ZM105.804 17.2202C105.804 15.1196 106.154 13.3348 106.846 11.8591L106.484 11.6892C105.761 13.2306 105.404 15.0764 105.404 17.2202H105.804ZM106.845 11.8599C107.547 10.3806 108.504 9.25627 109.713 8.47782L109.497 8.1415C108.217 8.96532 107.214 10.1506 106.484 11.6884L106.845 11.8599ZM109.713 8.47782C110.923 7.69885 112.296 7.30795 113.837 7.30795V6.90795C112.224 6.90795 110.776 7.3182 109.497 8.1415L109.713 8.47782ZM113.837 7.30795C115.036 7.30795 115.979 7.50955 116.68 7.89671L116.874 7.54647C116.092 7.11545 115.075 6.90795 113.837 6.90795V7.30795ZM116.683 7.89801C117.414 8.28845 117.969 8.74009 118.357 9.24905L118.675 9.00663C118.244 8.44173 117.64 7.95587 116.871 7.54518L116.683 7.89801ZM118.358 9.25063C118.772 9.78288 119.089 10.2474 119.313 10.6449L119.662 10.4488C119.425 10.0282 119.095 9.54666 118.673 9.00505L118.358 9.25063ZM119.487 10.7469H119.717V10.3469H119.487V10.7469ZM119.917 10.5469V0.818181H119.517V10.5469H119.917ZM119.717 1.01818H123.54V0.618181H119.717V1.01818ZM123.34 0.818181V27H123.74V0.818181H123.34ZM123.54 26.8H119.807V27.2H123.54V26.8ZM120.007 27V23.9446H119.607V27H120.007ZM119.807 23.7446H119.487V24.1446H119.807V23.7446ZM119.312 23.8481C119.09 24.2519 118.765 24.7191 118.335 25.2506L118.646 25.5023C119.085 24.9598 119.425 24.4725 119.662 24.0411L119.312 23.8481ZM118.333 25.2521C117.928 25.7631 117.363 26.2156 116.632 26.6063L116.82 26.9591C117.589 26.5486 118.2 26.0636 118.647 25.5008L118.333 25.2521ZM116.632 26.6063C115.92 26.9864 114.984 27.1835 113.811 27.1835V27.5835C115.025 27.5835 116.032 27.3801 116.82 26.9591L116.632 26.6063ZM114.655 24.3236C115.791 24.3236 116.765 24.0233 117.563 23.4132L117.32 23.0953C116.602 23.6443 115.717 23.9236 114.655 23.9236V24.3236ZM117.563 23.413C118.364 22.799 118.964 21.9524 119.368 20.8831L118.993 20.7419C118.612 21.7521 118.053 22.5334 117.32 23.0955L117.563 23.413ZM119.367 20.8844C119.778 19.8169 119.981 18.5814 119.981 17.1818H119.581C119.581 18.5436 119.384 19.7285 118.994 20.7406L119.367 20.8844ZM119.981 17.1818C119.981 15.7995 119.783 14.5811 119.38 13.5307L119.006 13.6739C119.388 14.6689 119.581 15.8369 119.581 17.1818H119.981ZM119.38 13.5307C118.977 12.4784 118.381 11.6488 117.588 11.0519L117.347 11.3714C118.071 11.9166 118.626 12.6807 119.006 13.6739L119.38 13.5307ZM117.588 11.0519C116.789 10.4504 115.807 10.1551 114.655 10.1551V10.5551C115.736 10.5551 116.629 10.8309 117.347 11.3714L117.588 11.0519ZM114.655 10.1551C113.468 10.1551 112.464 10.4634 111.656 11.0921L111.901 11.4079C112.627 10.8434 113.54 10.5551 114.655 10.5551V10.1551ZM111.656 11.0921C110.856 11.7142 110.256 12.5599 109.853 13.6207L110.227 13.7628C110.608 12.7611 111.167 11.979 111.901 11.4079L111.656 11.0921ZM109.852 13.622C109.459 14.6792 109.264 15.8667 109.264 17.1818H109.664C109.664 15.906 109.853 14.7668 110.227 13.7615L109.852 13.622ZM109.264 17.1818C109.264 18.5142 109.463 19.7189 109.865 20.7931L110.24 20.653C109.858 19.6306 109.664 18.4744 109.664 17.1818H109.264ZM109.865 20.7931C110.268 21.8704 110.867 22.7329 111.666 23.3721L111.916 23.0597C111.181 22.4717 110.621 21.6722 110.24 20.653L109.865 20.7931ZM111.668 23.3736C112.484 24.0102 113.484 24.3236 114.655 24.3236V23.9236C113.559 23.9236 112.649 23.6318 111.914 23.0582L111.668 23.3736ZM133.201 34.1591L133.133 34.3469L133.133 34.347L133.201 34.1591ZM130.466 32.5355L130.603 32.3906L130.603 32.3906L130.466 32.5355ZM128.88 30.3239L128.804 30.139L128.615 30.2168L128.697 30.4038L128.88 30.3239ZM132.166 28.9688L132.336 28.8641L132.247 28.7189L132.09 28.7839L132.166 28.9688ZM133.086 30.1577L132.939 30.293L132.939 30.2931L133.086 30.1577ZM134.672 31.2443L134.59 31.4268L134.591 31.4272L134.672 31.2443ZM140.859 30.6307L140.74 30.4698L140.739 30.4705L140.859 30.6307ZM142.278 23.4205H142.478V23.2205H142.278V23.4205ZM142.035 23.4205V23.2205H141.917L141.86 23.3239L142.035 23.4205ZM141.038 24.8139L140.886 24.6844L140.884 24.6859L141.038 24.8139ZM139.274 26.1435L139.184 25.9646L139.184 25.9646L139.274 26.1435ZM132.153 25.6193L132.051 25.7913L132.052 25.7922L132.153 25.6193ZM129.213 22.3849L129.034 22.4744L129.034 22.4757L129.213 22.3849ZM129.2 11.7358L129.02 11.6492L129.019 11.6501L129.2 11.7358ZM132.14 8.30966L132.248 8.47835L132.249 8.47782L132.14 8.30966ZM139.325 7.72159L139.229 7.89718L139.231 7.89801L139.325 7.72159ZM141.076 9.12784L140.918 9.25063L140.92 9.25217L141.076 9.12784ZM142.061 10.5469L141.886 10.6449L141.944 10.7469H142.061V10.5469ZM142.342 10.5469V10.7469H142.542V10.5469H142.342ZM142.342 7.36364V7.16364H142.142V7.36364H142.342ZM146.088 7.36364H146.288V7.16364H146.088V7.36364ZM144.912 31.5895L144.75 31.4722L144.75 31.4722L144.912 31.5895ZM141.728 33.9929L141.656 33.8065L141.656 33.8066L141.728 33.9929ZM139.977 22.7685L140.089 22.9343L140.089 22.934L139.977 22.7685ZM141.716 20.544L141.531 20.4678L141.53 20.4686L141.716 20.544ZM140.002 11.2116L139.882 11.3714L139.883 11.3723L140.002 11.2116ZM134.314 11.25L134.435 11.4087L134.436 11.4079L134.314 11.25ZM132.575 13.6534L132.388 13.5813L132.388 13.5827L132.575 13.6534ZM132.588 20.4418L132.773 20.3669L132.773 20.3669L132.588 20.4418ZM134.326 22.7173L134.21 22.8803L134.211 22.8809L134.326 22.7173ZM137.228 34.5727C135.685 34.5727 134.367 34.3703 133.27 33.9711L133.133 34.347C134.285 34.7661 135.652 34.9727 137.228 34.9727V34.5727ZM133.27 33.9713C132.174 33.5696 131.287 33.0414 130.603 32.3906L130.328 32.6804C131.059 33.3762 131.996 33.9304 133.133 34.3469L133.27 33.9713ZM130.603 32.3906C129.913 31.7336 129.401 31.0179 129.064 30.2439L128.697 30.4038C129.058 31.2321 129.603 31.9909 130.328 32.6804L130.603 32.3906ZM128.957 30.5088L132.242 29.1536L132.09 28.7839L128.804 30.139L128.957 30.5088ZM131.995 29.0734C132.234 29.4619 132.549 29.8684 132.939 30.293L133.234 30.0224C132.856 29.6117 132.558 29.2256 132.336 28.8641L131.995 29.0734ZM132.939 30.2931C133.354 30.7436 133.906 31.1202 134.59 31.4268L134.753 31.0618C134.107 30.7719 133.603 30.424 133.233 30.0223L132.939 30.2931ZM134.591 31.4272C135.298 31.7406 136.193 31.8918 137.267 31.8918V31.4918C136.227 31.4918 135.392 31.3447 134.753 31.0615L134.591 31.4272ZM137.267 31.8918C138.749 31.8918 139.991 31.5295 140.979 30.7909L140.739 30.4705C139.835 31.1466 138.682 31.4918 137.267 31.4918V31.8918ZM140.978 30.7915C141.99 30.044 142.478 28.8576 142.478 27.2812H142.078C142.078 28.773 141.62 29.8197 140.74 30.4698L140.978 30.7915ZM142.478 27.2812V23.4205H142.078V27.2812H142.478ZM142.278 23.2205H142.035V23.6205H142.278V23.2205ZM141.86 23.3239C141.638 23.7261 141.315 24.1795 140.886 24.6844L141.19 24.9435C141.631 24.4257 141.972 23.95 142.21 23.517L141.86 23.3239ZM140.884 24.6859C140.48 25.1713 139.916 25.5988 139.184 25.9646L139.363 26.3224C140.132 25.9381 140.744 25.4793 141.192 24.942L140.884 24.6859ZM139.184 25.9646C138.471 26.321 137.529 26.506 136.346 26.506V26.906C137.566 26.906 138.576 26.7159 139.363 26.3224L139.184 25.9646ZM136.346 26.506C134.828 26.506 133.465 26.1518 132.254 25.4465L132.052 25.7922C133.33 26.5357 134.763 26.906 136.346 26.906V26.506ZM132.255 25.4473C131.055 24.7358 130.1 23.6876 129.391 22.2942L129.034 22.4757C129.774 23.9288 130.779 25.0369 132.051 25.7913L132.255 25.4473ZM129.392 22.2955C128.693 20.8986 128.339 19.1712 128.339 17.1051H127.939C127.939 19.2151 128.3 21.0077 129.034 22.4744L129.392 22.2955ZM128.339 17.1051C128.339 15.0391 128.689 13.2801 129.381 11.8215L129.019 11.6501C128.296 13.1745 127.939 14.995 127.939 17.1051H128.339ZM129.38 11.8223C130.082 10.3603 131.039 9.24855 132.248 8.47834L132.033 8.14097C130.753 8.956 129.75 10.1283 129.02 11.6492L129.38 11.8223ZM132.249 8.47782C133.458 7.69885 134.831 7.30795 136.372 7.30795V6.90795C134.759 6.90795 133.311 7.3182 132.032 8.1415L132.249 8.47782ZM136.372 7.30795C137.57 7.30795 138.518 7.50949 139.229 7.89717L139.421 7.54601C138.631 7.11551 137.611 6.90795 136.372 6.90795V7.30795ZM139.231 7.89801C139.962 8.28856 140.522 8.74064 140.918 9.25063L141.234 9.00505C140.796 8.44118 140.188 7.95575 139.419 7.54518L139.231 7.89801ZM140.92 9.25217C141.342 9.78423 141.663 10.2482 141.886 10.6449L142.235 10.4488C141.998 10.0274 141.663 9.54532 141.233 9.00351L140.92 9.25217ZM142.061 10.7469H142.342V10.3469H142.061V10.7469ZM142.542 10.5469V7.36364H142.142V10.5469H142.542ZM142.342 7.56364H146.088V7.16364H142.342V7.56364ZM145.888 7.36364V27.4347H146.288V7.36364H145.888ZM145.888 27.4347C145.888 29.0912 145.503 30.4319 144.75 31.4722L145.074 31.7068C145.888 30.5823 146.288 29.1532 146.288 27.4347H145.888ZM144.75 31.4722C143.99 32.5211 142.961 33.2994 141.656 33.8065L141.801 34.1793C143.172 33.6466 144.265 32.8227 145.074 31.7068L144.75 31.4722ZM141.656 33.8066C140.353 34.316 138.878 34.5727 137.228 34.5727V34.9727C138.92 34.9727 140.445 34.7095 141.801 34.1792L141.656 33.8066ZM137.19 23.7355C138.321 23.7355 139.291 23.4721 140.089 22.9343L139.865 22.6026C139.146 23.0876 138.258 23.3355 137.19 23.3355V23.7355ZM140.089 22.934C140.893 22.3893 141.496 21.6145 141.901 20.6194L141.53 20.4686C141.151 21.3997 140.595 22.1078 139.865 22.6029L140.089 22.934ZM141.9 20.6203C142.313 19.6186 142.516 18.428 142.516 17.054H142.116C142.116 18.3902 141.919 19.5263 141.531 20.4678L141.9 20.6203ZM142.516 17.054C142.516 15.7135 142.318 14.5247 141.915 13.4913L141.542 13.6366C141.923 14.6145 142.116 15.7524 142.116 17.054H142.516ZM141.915 13.4913C141.511 12.4557 140.915 11.639 140.122 11.051L139.883 11.3723C140.607 11.9093 141.162 12.6608 141.542 13.6366L141.915 13.4913ZM140.123 11.0519C139.324 10.4504 138.342 10.1551 137.19 10.1551V10.5551C138.271 10.5551 139.164 10.8309 139.882 11.3714L140.123 11.0519ZM137.19 10.1551C136.003 10.1551 134.999 10.4634 134.191 11.0921L134.436 11.4079C135.162 10.8434 136.075 10.5551 137.19 10.5551V10.1551ZM134.192 11.0913C133.392 11.7044 132.792 12.5372 132.388 13.5813L132.761 13.7255C133.142 12.7412 133.701 11.9717 134.435 11.4087L134.192 11.0913ZM132.388 13.5827C131.995 14.6227 131.8 15.7807 131.8 17.054H132.2C132.2 15.8216 132.388 14.7125 132.762 13.7241L132.388 13.5827ZM131.8 17.054C131.8 18.3609 131.999 19.5165 132.402 20.5166L132.773 20.3669C132.393 19.4239 132.2 18.3209 132.2 17.054H131.8ZM132.402 20.5166C132.807 21.5195 133.409 22.3103 134.21 22.8803L134.442 22.5543C133.71 22.0335 133.153 21.3072 132.773 20.3669L132.402 20.5166ZM134.211 22.8809C135.027 23.4544 136.024 23.7355 137.19 23.7355V23.3355C136.089 23.3355 135.177 23.0712 134.441 22.5537L134.211 22.8809ZM154.679 26.1562L154.576 26.3277L154.577 26.3284L154.679 26.1562ZM151.457 22.6406L151.278 22.7293L151.278 22.7305L151.457 22.6406ZM151.457 11.9915L151.278 11.9028L151.277 11.9036L151.457 11.9915ZM154.627 8.39915L154.521 8.23002L154.52 8.23033L154.627 8.39915ZM162.63 7.65767L162.697 7.46904L162.697 7.46904L162.63 7.65767ZM165.43 9.38352L165.292 9.52863L165.292 9.52863L165.43 9.38352ZM167.386 12.4389L167.199 12.5101L167.199 12.5105L167.386 12.4389ZM168.102 18.3324V18.5324H168.302V18.3324H168.102ZM152.493 18.3324H152.293V18.5324H152.493V18.3324ZM152.493 15.4688V15.2687H152.293V15.4688H152.493ZM164.356 15.4688V15.6688H164.556V15.4688H164.356ZM163.743 12.7969L163.565 12.8894L163.566 12.8902L163.743 12.7969ZM162.017 10.9432L161.912 11.1134L161.913 11.114L162.017 10.9432ZM156.622 11.0582L156.731 11.2255L156.732 11.2252L156.622 11.0582ZM154.781 13.1037L154.603 13.0121L154.603 13.0128L154.781 13.1037ZM154.832 21.4134L154.653 21.5028L154.654 21.5041L154.832 21.4134ZM156.788 23.5227L156.687 23.6956L156.689 23.6964L156.788 23.5227ZM161.697 23.9318L161.762 24.121L161.764 24.1202L161.697 23.9318ZM163.244 22.9858L163.105 22.8416L163.105 22.8416L163.244 22.9858ZM164.241 21.4389L164.277 21.2421L164.112 21.2125L164.054 21.3687L164.241 21.4389ZM167.859 22.0909L168.052 22.1434L168.109 21.9328L167.894 21.8941L167.859 22.0909ZM166.299 24.8906L166.153 24.7539L166.153 24.754L166.299 24.8906ZM163.5 26.7443L163.572 26.9307L163.573 26.9304L163.5 26.7443ZM159.677 27.1963C157.771 27.1963 156.142 26.7894 154.78 25.9841L154.577 26.3284C156.011 27.1765 157.714 27.5963 159.677 27.5963V27.1963ZM154.782 25.9848C153.426 25.1699 152.378 24.027 151.636 22.5508L151.278 22.7305C152.053 24.2713 153.153 25.4721 154.576 26.3277L154.782 25.9848ZM151.636 22.552C150.902 21.0676 150.532 19.322 150.532 17.3097H150.132C150.132 19.3711 150.512 21.1796 151.278 22.7293L151.636 22.552ZM150.532 17.3097C150.532 15.3234 150.902 13.5816 151.637 12.0793L151.277 11.9036C150.512 13.4695 150.132 15.2732 150.132 17.3097H150.532ZM151.636 12.0801C152.38 10.5766 153.413 9.40783 154.735 8.56797L154.52 8.23033C153.132 9.11206 152.051 10.3382 151.278 11.9028L151.636 12.0801ZM154.734 8.56827C156.062 7.7302 157.618 7.30795 159.409 7.30795V6.90795C157.552 6.90795 155.92 7.3465 154.521 8.23002L154.734 8.56827ZM159.409 7.30795C160.494 7.30795 161.546 7.48739 162.564 7.8463L162.697 7.46904C161.636 7.095 160.539 6.90795 159.409 6.90795V7.30795ZM162.564 7.8463C163.576 8.20311 164.485 8.76322 165.292 9.52863L165.568 9.23841C164.721 8.43564 163.764 7.84518 162.697 7.46904L162.564 7.8463ZM165.292 9.52863C166.094 10.2888 166.731 11.2804 167.199 12.5101L167.573 12.3677C167.087 11.0918 166.42 10.0465 165.568 9.23841L165.292 9.52863ZM167.199 12.5105C167.665 13.7257 167.902 15.2128 167.902 16.9773H168.302C168.302 15.1793 168.061 13.6407 167.573 12.3673L167.199 12.5105ZM167.902 16.9773V18.3324H168.302V16.9773H167.902ZM168.102 18.1324H152.493V18.5324H168.102V18.1324ZM152.693 18.3324V15.4688H152.293V18.3324H152.693ZM152.493 15.6688H164.356V15.2687H152.493V15.6688ZM164.556 15.4688C164.556 14.4354 164.346 13.5119 163.919 12.7036L163.566 12.8902C163.957 13.633 164.156 14.4908 164.156 15.4688H164.556ZM163.92 12.7044C163.494 11.8886 162.894 11.2434 162.121 10.7724L161.913 11.114C162.622 11.5464 163.173 12.1369 163.565 12.8894L163.92 12.7044ZM162.122 10.7729C161.353 10.299 160.454 10.0656 159.434 10.0656V10.4656C160.391 10.4656 161.215 10.6839 161.912 11.1134L162.122 10.7729ZM159.434 10.0656C158.326 10.0656 157.349 10.3388 156.512 10.8913L156.732 11.2252C157.497 10.7208 158.395 10.4656 159.434 10.4656V10.0656ZM156.512 10.891C155.691 11.4298 155.054 12.1377 154.603 13.0121L154.959 13.1953C155.378 12.3822 155.968 11.7264 156.731 11.2255L156.512 10.891ZM154.603 13.0128C154.162 13.8775 153.942 14.8165 153.942 15.8267H154.342C154.342 14.8767 154.548 14.0004 154.959 13.1946L154.603 13.0128ZM153.942 15.8267V18.0639H154.342V15.8267H153.942ZM153.942 18.0639C153.942 19.3992 154.176 20.548 154.653 21.5028L155.011 21.3239C154.568 20.4378 154.342 19.3537 154.342 18.0639H153.942ZM154.654 21.5041C155.139 22.4564 155.817 23.1891 156.687 23.6956L156.889 23.3498C156.089 22.8847 155.463 22.2112 155.01 21.3226L154.654 21.5041ZM156.689 23.6964C157.559 24.1935 158.57 24.4386 159.716 24.4386V24.0386C158.628 24.0386 157.688 23.8065 156.887 23.3491L156.689 23.6964ZM159.716 24.4386C160.459 24.4386 161.142 24.3337 161.762 24.121L161.632 23.7426C161.059 23.939 160.421 24.0386 159.716 24.0386V24.4386ZM161.764 24.1202C162.386 23.8981 162.926 23.5682 163.383 23.13L163.105 22.8416C162.692 23.2386 162.201 23.5394 161.63 23.7435L161.764 24.1202ZM163.383 23.13C163.841 22.6899 164.189 22.1483 164.428 21.5091L164.054 21.3687C163.833 21.9568 163.517 22.4464 163.105 22.8416L163.383 23.13ZM164.206 21.6357L167.824 22.2877L167.894 21.8941L164.277 21.2421L164.206 21.6357ZM167.666 22.0384C167.385 23.0725 166.881 23.9768 166.153 24.7539L166.445 25.0273C167.218 24.2022 167.754 23.24 168.052 22.1434L167.666 22.0384ZM166.153 24.754C165.434 25.5226 164.527 26.1247 163.426 26.5582L163.573 26.9304C164.722 26.4776 165.681 25.8439 166.445 25.0273L166.153 24.754ZM163.427 26.5579C162.338 26.982 161.089 27.1963 159.677 27.1963V27.5963C161.129 27.5963 162.429 27.3759 163.572 26.9307L163.427 26.5579ZM181.509 7.36364H181.709V7.16364H181.509V7.36364ZM181.509 10.4318V10.6318H181.709V10.4318H181.509ZM170.783 10.4318H170.583V10.6318H170.783V10.4318ZM170.783 7.36364V7.16364H170.583V7.36364H170.783ZM173.66 2.65909V2.45909H173.46V2.65909H173.66ZM177.482 2.65909H177.682V2.45909H177.482V2.65909ZM177.815 22.9091L177.642 23.0108L177.643 23.0126L177.815 22.9091ZM178.671 23.6634L178.598 23.8497L178.604 23.8517L178.671 23.6634ZM180.64 23.7912L180.676 23.9878L180.676 23.9878L180.64 23.7912ZM181.177 23.6889L181.372 23.6462L181.33 23.4543L181.138 23.4928L181.177 23.6889ZM181.867 26.8466L181.939 27.0333L182.099 26.9716L182.063 26.8039L181.867 26.8466ZM180.921 27.1023L180.88 26.9064L180.876 26.9073L180.921 27.1023ZM179.387 27.2557L179.384 27.0557L179.384 27.0557L179.387 27.2557ZM176.575 26.7188L176.495 26.9024L176.495 26.9024L176.575 26.7188ZM174.465 24.9801L174.3 25.0931L174.3 25.0931L174.465 24.9801ZM181.309 7.36364V10.4318H181.709V7.36364H181.309ZM181.509 10.2318H170.783V10.6318H181.509V10.2318ZM170.983 10.4318V7.36364H170.583V10.4318H170.983ZM170.783 7.56364H181.509V7.16364H170.783V7.56364ZM173.66 2.85909H177.482V2.45909H173.66V2.85909ZM177.282 2.65909V21.2344H177.682V2.65909H177.282ZM177.282 21.2344C177.282 21.9895 177.394 22.5903 177.642 23.0108L177.987 22.8073C177.792 22.4778 177.682 21.9622 177.682 21.2344H177.282ZM177.643 23.0126C177.884 23.4112 178.202 23.6951 178.598 23.8497L178.744 23.477C178.441 23.3589 178.188 23.14 177.986 22.8056L177.643 23.0126ZM178.604 23.8517C178.985 23.988 179.396 24.0551 179.835 24.0551V23.6551C179.438 23.6551 179.073 23.5944 178.738 23.475L178.604 23.8517ZM179.835 24.0551C180.15 24.0551 180.431 24.0332 180.676 23.9878L180.603 23.5945C180.388 23.6344 180.133 23.6551 179.835 23.6551V24.0551ZM180.676 23.9878C180.907 23.9452 181.087 23.9109 181.216 23.885L181.138 23.4928C181.011 23.5181 180.833 23.552 180.603 23.5945L180.676 23.9878ZM180.981 23.7316L181.672 26.8893L182.063 26.8039L181.372 23.6462L180.981 23.7316ZM181.795 26.6599C181.589 26.7394 181.286 26.8221 180.88 26.9065L180.962 27.2981C181.375 27.212 181.703 27.1242 181.939 27.0333L181.795 26.6599ZM180.876 26.9073C180.486 26.9968 179.99 27.0473 179.384 27.0557L179.39 27.4557C180.012 27.447 180.538 27.3952 180.966 27.2972L180.876 26.9073ZM179.384 27.0557C178.405 27.0723 177.495 26.8982 176.654 26.5351L176.495 26.9024C177.392 27.2893 178.358 27.4731 179.39 27.4557L179.384 27.0557ZM176.654 26.5351C175.819 26.1751 175.146 25.6201 174.63 24.8671L174.3 25.0931C174.858 25.9083 175.591 26.5124 176.495 26.9024L176.654 26.5351ZM174.63 24.8671C174.121 24.1237 173.86 23.1813 173.86 22.027H173.46C173.46 23.242 173.735 24.2684 174.3 25.0931L174.63 24.8671ZM173.86 22.027V2.65909H173.46V22.027H173.86Z"
          fill="black" mask="url(#path-1-outside-1_6_5)"/>
    <defs>
        <filter id="filter0_i_6_5" x="0.160522" y="0.818176" width="181.707" height="33.9546"
                filterUnits="userSpaceOnUse" color-interpolation-filters="sRGB">
            <feFlood flood-opacity="0" result="BackgroundImageFix"/>
            <feBlend mode="normal" in="SourceGraphic" in2="BackgroundImageFix" result="shape"/>
            <feColorMatrix in="SourceAlpha" type="matrix" values="0 0 0 0 0 0 0 0 0 0 0 0 0 0 0 0 0 0 127 0"
                           result="hardAlpha"/>
            <feOffset dy="1"/>
            <feComposite in2="hardAlpha" operator="arithmetic" k2="-1" k3="1"/>
            <feColorMatrix type="matrix" values="0 0 0 0 0 0 0 0 0 0 0 0 0 0 0 0 0 0 0.25 0"/>
            <feBlend mode="normal" in2="shape" result="effect1_innerShadow_6_5"/>
        </filter>
    </defs>
</svg>
